<?xml version="1.0" encoding="UTF-8"?>
<svg xmlns="http://www.w3.org/2000/svg" xmlns:xlink="http://www.w3.org/1999/xlink" viewBox="0 0 239.76 216.44">
  <defs>
    <style>
      .cls-1 {
        fill: #ad2a40;
      }

      .cls-1, .cls-2, .cls-3, .cls-4, .cls-5, .cls-6, .cls-7, .cls-8, .cls-9, .cls-10, .cls-11, .cls-12, .cls-13 {
        stroke-width: 0px;
      }

      .cls-14 {
        font-size: 12.1px;
      }

      .cls-14, .cls-15 {
        fill: #fff;
        font-family: Poppins-Bold, 'Poppins Bold';
        font-weight: 700;
      }

      .cls-16 {
        stroke-width: 1.14px;
      }

      .cls-16, .cls-17, .cls-18, .cls-19, .cls-20, .cls-21, .cls-5, .cls-22, .cls-23, .cls-24, .cls-25, .cls-26, .cls-27, .cls-28, .cls-29 {
        fill: none;
      }

      .cls-16, .cls-17, .cls-20, .cls-22, .cls-30, .cls-23 {
        stroke-linecap: round;
        stroke-linejoin: round;
      }

      .cls-16, .cls-17, .cls-20, .cls-22, .cls-23, .cls-24, .cls-26 {
        stroke: #222221;
      }

      .cls-31, .cls-4 {
        opacity: .5;
      }

      .cls-17 {
        stroke-width: 1.13px;
      }

      .cls-32, .cls-9 {
        opacity: .6;
      }

      .cls-2, .cls-33, .cls-13 {
        fill: #3c62bb;
      }

      .cls-34, .cls-3, .cls-9, .cls-12, .cls-13 {
        mix-blend-mode: multiply;
      }

      .cls-34, .cls-35, .cls-13 {
        opacity: .2;
      }

      .cls-18 {
        stroke-width: 13.28px;
      }

      .cls-18, .cls-19, .cls-21, .cls-24, .cls-25, .cls-26, .cls-27, .cls-28, .cls-29 {
        stroke-miterlimit: 10;
      }

      .cls-18, .cls-30, .cls-25, .cls-28, .cls-29 {
        stroke: #fff;
      }

      .cls-19 {
        stroke-width: 4.05px;
      }

      .cls-19, .cls-21, .cls-27 {
        stroke: #e54d5d;
      }

      .cls-3 {
        opacity: .33;
      }

      .cls-3, .cls-4, .cls-36, .cls-6, .cls-11, .cls-12 {
        fill: #9cb6fb;
      }

      .cls-37 {
        clip-path: url(#clippath-2);
      }

      .cls-38 {
        isolation: isolate;
      }

      .cls-20, .cls-24 {
        stroke-width: 1.05px;
      }

      .cls-39 {
        letter-spacing: 0em;
      }

      .cls-21 {
        stroke-width: 5px;
      }

      .cls-40 {
        clip-path: url(#clippath-1);
      }

      .cls-41, .cls-12 {
        opacity: .58;
      }

      .cls-42 {
        letter-spacing: 0em;
      }

      .cls-43 {
        letter-spacing: 0em;
      }

      .cls-44 {
        letter-spacing: 0em;
      }

      .cls-36 {
        font-family: Poppins-Light, 'Poppins Light';
        font-size: 9.2px;
        font-weight: 300;
      }

      .cls-22 {
        stroke-width: .92px;
      }

      .cls-7, .cls-9 {
        fill: #e54d5d;
      }

      .cls-30 {
        fill: #222221;
        stroke-width: 1.23px;
      }

      .cls-23 {
        stroke-width: .91px;
      }

      .cls-45 {
        letter-spacing: 0em;
      }

      .cls-46 {
        clip-path: url(#clippath);
      }

      .cls-15 {
        font-size: 17.02px;
      }

      .cls-47 {
        letter-spacing: 0em;
      }

      .cls-8 {
        fill: #f5f8ff;
      }

      .cls-48 {
        clip-path: url(#clippath-3);
      }

      .cls-49 {
        letter-spacing: -.01em;
      }

      .cls-25 {
        stroke-width: 30.98px;
      }

      .cls-26 {
        stroke-dasharray: 0 0 2.41 2.41;
        stroke-width: .8px;
      }

      .cls-10 {
        fill: #1e3561;
      }

      .cls-11 {
        opacity: .35;
      }

      .cls-27 {
        stroke-width: 17.7px;
      }

      .cls-28 {
        stroke-width: 7.09px;
      }

      .cls-29 {
        stroke-width: 3.04px;
      }
    </style>
    <clipPath id="clippath">
      <path class="cls-5" d="m228.94,97.4s7.11,15.14-1.24,34.61l-103.23,64.28s13.74-14.85,2-35.87l102.46-63.03Z"/>
    </clipPath>
    <clipPath id="clippath-1">
      <path class="cls-5" d="m151.8,167c-.3,5.09-3.48,9.22-7.12,9.22s-6.34-4.13-6.05-9.22c.3-5.09,3.48-9.22,7.12-9.22s6.34,4.13,6.05,9.22Z"/>
    </clipPath>
    <clipPath id="clippath-2">
      <polygon class="cls-2" points="130.19 121.44 31.67 95.07 116.21 47.32 214.38 66.87 130.19 121.44"/>
    </clipPath>
    <clipPath id="clippath-3">
      <polygon class="cls-5" points="123.44 79.05 73.25 63.75 106.52 46.9 154.76 60.5 123.44 79.05"/>
    </clipPath>
  </defs>
  <g class="cls-38">
    <g id="Layer_2" data-name="Layer 2">
      <g id="OBJECTS">
        <g>
          <path class="cls-11" d="m189.72,192.34C264.58,140.58,229.85,4.29,136.05,13.26c-18.47,4.47-32.36,19.4-49.14,28.31-18.16,9.65-40.92,12.85-53.77,28.9-28.46,35.57-25.05,84.37-5.44,108.58,38.18,39.14,104.61,49.43,162.02,13.29"/>
          <path class="cls-11" d="m67.3,45.63c12.03-4.03,23.55-9.58,34.2-16.47,3.57-2.31,7.38-5.31,7.8-9.54.37-3.7-2.18-7.26-5.51-8.91-3.33-1.65-7.25-1.68-10.91-1.01-12.86,2.36-23.47,12.99-33.58,20.67-9.64,7.32-4.32,19.39,8,15.26Z"/>
        </g>
        <g class="cls-35">
          <circle class="cls-26" cx="160.63" cy="172.05" r="42.39" transform="translate(-44.71 287.11) rotate(-76.23)"/>
          <circle class="cls-26" cx="113.71" cy="36.65" r="36.24" transform="translate(7.39 91.14) rotate(-45)"/>
          <circle class="cls-26" cx="39.85" cy="51.48" r="25.34" transform="translate(-24.73 43.26) rotate(-45)"/>
          <circle class="cls-26" cx="52.57" cy="146.35" r="52.17"/>
          <circle class="cls-26" cx="196.19" cy="85.62" r="43.15" transform="translate(-13.49 42.55) rotate(-11.97)"/>
        </g>
        <g>
          <path class="cls-7" d="m15.87,76.96l-3.14,3.14-3.14-3.14c-.19-.19-.5-.19-.69,0-.19.19-.19.5,0,.69l3.14,3.14-3.14,3.14c-.19.19-.19.5,0,.69.19.19.5.19.69,0l3.14-3.14,3.14,3.14c.19.19.5.19.69,0,.19-.19.19-.5,0-.69l-3.14-3.14,3.14-3.14c.19-.19.19-.5,0-.69-.19-.19-.5-.19-.69,0Z"/>
          <path class="cls-7" d="m98.28,208.65l-3.14,3.14-3.14-3.14c-.19-.19-.5-.19-.69,0-.19.19-.19.5,0,.69l3.14,3.14-3.14,3.14c-.19.19-.19.5,0,.69s.5.19.69,0l3.14-3.14,3.14,3.14c.19.19.5.19.69,0,.19-.19.19-.5,0-.69l-3.14-3.14,3.14-3.14c.19-.19.19-.5,0-.69s-.5-.19-.69,0Z"/>
          <path class="cls-7" d="m191.06,20.6l-3.14,3.14-3.14-3.14c-.19-.19-.5-.19-.69,0s-.19.5,0,.69l3.14,3.14-3.14,3.14c-.19.19-.19.5,0,.69.19.19.5.19.69,0l3.14-3.14,3.14,3.14c.19.19.5.19.69,0s.19-.5,0-.69l-3.14-3.14,3.14-3.14c.19-.19.19-.5,0-.69s-.5-.19-.69,0Z"/>
          <path class="cls-7" d="m221.63,158.63l-3.14,3.14-3.14-3.14c-.19-.19-.5-.19-.69,0-.19.19-.19.5,0,.69l3.14,3.14-3.14,3.14c-.19.19-.19.5,0,.69.19.19.5.19.69,0l3.14-3.14,3.14,3.14c.19.19.5.19.69,0,.19-.19.19-.5,0-.69l-3.14-3.14,3.14-3.14c.19-.19.19-.5,0-.69s-.5-.19-.69,0Z"/>
          <circle class="cls-2" cx="185.77" cy="183" r="3.28"/>
          <path class="cls-2" d="m55.22,191.84c0,1.81-1.47,3.28-3.28,3.28s-3.28-1.47-3.28-3.28,1.47-3.28,3.28-3.28,3.28,1.47,3.28,3.28Z"/>
          <circle class="cls-2" cx="225.57" cy="79.5" r="5.54" transform="translate(9.85 182.79) rotate(-45)"/>
          <circle class="cls-2" cx="55.73" cy="22" r="5.54" transform="translate(21.57 71.23) rotate(-76.78)"/>
        </g>
        <g>
          <g>
            <path class="cls-8" d="m7.88,157.14c4.74-14.83.81-28.42.81-28.42l122.81,36.76-4.64,27.82L7.88,157.14Z"/>
            <path class="cls-2" d="m126.48,160.43L6.13,124.01l.28,3.83,117.34,35.39s4.69,5.1,4.22,13.91c-.58,10.96-4.84,14.37-4.84,14.37L6.11,155.35l.62,4.79,117.75,36.16s15.21-13.11,2-35.87Z"/>
            <path class="cls-2" d="m228.94,97.4s7.11,15.14-1.24,34.61l-103.23,64.28s13.74-14.85,2-35.87l102.46-63.03Z"/>
            <g class="cls-46">
              <path class="cls-21" d="m224.54,99.86s7.66,13.1-2.21,36.54"/>
              <path class="cls-21" d="m130.79,157.46s9.86,21.11-1.05,37.92"/>
            </g>
            <polygon class="cls-6" points="126.48 160.43 6.13 124.01 109.4 69.03 228.94 97.4 126.48 160.43"/>
            <polygon class="cls-7" points="155.12 142.15 35.8 107.97 101.73 72.87 220.55 101.9 155.12 142.15"/>
            <g class="cls-34">
              <path class="cls-6" d="m211.88,93.35c-47.24,53.21-162.07,37.06-203.06,29.23l-2.68,1.42,120.34,36.42,102.46-63.03-17.07-4.05Z"/>
            </g>
          </g>
          <path class="cls-12" d="m204.62,146.4c-23.18,8.54-47.61,12.86-72.14,10.34l-6.01,3.7c11.74,21.02-2,35.87-2,35.87l80.14-49.91Z"/>
          <g>
            <path class="cls-20" d="m228.5,97.4s7.11,15.14-1.24,34.61l-103.23,64.28s13.74-14.85,2-35.87l102.46-63.03Z"/>
            <polygon class="cls-20" points="126.04 160.43 5.69 124.01 108.96 69.03 228.5 97.4 126.04 160.43"/>
            <path class="cls-20" d="m124.04,196.3L6.29,160.14l-.62-4.79,117.03,36.16s4.27-3.41,4.84-14.37c.46-8.81-4.22-13.91-4.22-13.91L5.98,127.85l-.28-3.83,120.34,36.42"/>
            <path class="cls-24" d="m8.24,128.72s4.74,12.05,0,26.89"/>
          </g>
          <path class="cls-4" d="m14.6,153.73s.06,0,.08.01l103.15,31.32c.18.05.28.24.23.43-.05.18-.24.28-.42.23l-103.15-31.32c-.18-.05-.28-.24-.23-.43.04-.15.19-.25.34-.24Z"/>
          <path class="cls-4" d="m16.5,149.37s.06,0,.08.01l35.4,10.75c.18.05.28.24.23.43-.05.18-.24.28-.42.23l-35.4-10.75c-.18-.05-.28-.24-.23-.43.04-.15.19-.25.34-.24Z"/>
          <g class="cls-31">
            <path class="cls-6" d="m57.77,161.91s.06,0,.08.01l61.87,18.79c.18.05.28.24.23.43-.05.18-.24.28-.42.23l-61.87-18.79c-.18-.05-.28-.24-.23-.43.04-.15.19-.25.34-.24Z"/>
          </g>
          <path class="cls-4" d="m15.55,146.09s.06,0,.08.01l76.57,23.25c.18.05.28.24.23.43-.05.18-.24.28-.42.23l-76.57-23.25c-.18-.05-.28-.24-.23-.43.04-.15.19-.25.34-.24Z"/>
          <path class="cls-4" d="m101.04,172.05s.06,0,.08.01l17.65,5.36c.18.05.28.24.23.43-.05.18-.24.28-.42.23l-17.65-5.36c-.18-.05-.28-.24-.23-.43.04-.15.19-.25.34-.24Z"/>
          <path class="cls-4" d="m16.65,139.46s.06,0,.08.01l103.15,31.32c.18.05.28.24.23.43-.05.18-.24.28-.42.23l-103.15-31.32c-.18-.05-.28-.24-.23-.43.04-.15.19-.25.34-.24Z"/>
          <path class="cls-4" d="m17.4,142.24s.06,0,.08.01l103.15,31.32c.18.05.28.24.23.43-.05.18-.24.28-.42.23l-103.15-31.32c-.18-.05-.28-.24-.23-.43.04-.15.19-.25.34-.24Z"/>
          <path class="cls-4" d="m14.99,135.67s.06,0,.08.01l26.44,8.03c.18.05.28.24.23.43-.05.18-.24.28-.42.23l-26.44-8.03c-.18-.05-.28-.24-.23-.43.04-.15.19-.25.34-.24Z"/>
          <path class="cls-4" d="m44.23,144.55s.06,0,.08.01l73.91,22.44c.18.05.28.24.23.43-.05.18-.24.28-.42.23l-73.91-22.44c-.18-.05-.28-.24-.23-.43.04-.15.19-.25.34-.24Z"/>
          <g class="cls-40">
            <path class="cls-10" d="m151.8,167c-.3,5.09-3.48,9.22-7.12,9.22s-6.34-4.13-6.05-9.22c.3-5.09,3.48-9.22,7.12-9.22s6.34,4.13,6.05,9.22Z"/>
            <polygon class="cls-30" points="154.55 160.26 146.78 165.39 151.17 155.3 150.47 154.97 146.07 165.07 144.61 155.73 143.27 156.61 144.73 165.95 138.29 163.01 137.81 164.11 144.25 167.05 136.48 172.18 136.73 173.79 144.5 168.66 140.11 178.76 140.81 179.08 145.21 168.99 146.67 178.33 148.01 177.44 146.55 168.1 152.99 171.04 153.47 169.94 147.03 167 154.8 161.87 154.55 160.26"/>
            <polygon class="cls-7" points="154.55 160.26 146.78 165.39 151.17 155.3 150.47 154.97 146.07 165.07 144.61 155.73 143.27 156.61 144.73 165.95 138.29 163.01 137.81 164.11 144.25 167.05 136.48 172.18 136.73 173.79 144.5 168.66 140.11 178.76 140.81 179.08 145.21 168.99 146.67 178.33 148.01 177.44 146.55 168.1 152.99 171.04 153.47 169.94 147.03 167 154.8 161.87 154.55 160.26"/>
          </g>
        </g>
        <g>
          <g>
            <polygon class="cls-10" points="129.02 150.27 30.51 123.9 30.32 120.93 115.04 76.14 213.02 92.72 213.21 95.69 129.02 150.27"/>
            <polygon class="cls-2" points="128.83 147.3 30.32 120.93 26.31 114.83 114.85 73.17 213.02 92.72 128.83 147.3"/>
          </g>
          <path class="cls-8" d="m127.92,144.66l-99.67-25.6s-4.34-5.2-3.08-11.35c1.7-8.3,6.7-9.66,6.7-9.66l80.66-27.38,99.71-.76s-2.53,3.65-3.23,12.57c-.21,2.65,1.38,9.28,1.38,9.28l-82.47,52.9Z"/>
          <g>
            <polygon class="cls-10" points="130.38 124.41 31.87 98.05 31.67 95.07 116.4 50.29 214.38 66.87 214.57 69.84 130.38 124.41"/>
            <g>
              <polygon class="cls-33" points="130.19 121.44 31.67 95.07 116.21 47.32 214.38 66.87 130.19 121.44"/>
              <g class="cls-37">
                <g>
                  <line class="cls-25" x1="69.93" y1="74.33" x2="141.41" y2="132.56"/>
                  <line class="cls-25" x1="222.28" y1="67.93" x2="86.25" y2="66.54"/>
                  <line class="cls-27" x1="69.93" y1="74.33" x2="141.41" y2="132.56"/>
                  <line class="cls-27" x1="222.28" y1="67.93" x2="86.25" y2="66.54"/>
                  <polygon class="cls-18" points="221.84 105.74 98.99 67.71 242.15 -20.59 224.84 -25.95 81.68 62.36 -41.17 24.33 -61.34 36.77 61.51 74.8 -81.65 163.11 -64.34 168.47 78.82 80.16 201.66 118.18 221.84 105.74"/>
                  <polygon class="cls-7" points="221.84 105.74 98.99 67.71 242.15 -20.59 224.84 -25.95 81.68 62.36 -41.17 24.33 -61.34 36.77 61.51 74.8 -81.65 163.11 -64.34 168.47 78.82 80.16 201.66 118.18 221.84 105.74"/>
                </g>
              </g>
            </g>
          </g>
          <path class="cls-13" d="m62.62,104.63l67.06,17.95,84.19-54.58-1.62-.32c-46.44,27.93-99.78,41.31-149.64,36.95Z"/>
          <path class="cls-10" d="m30.32,120.93s-3.45-5.13-3-11.32c.35-4.83,1.59-8.25,4.55-11.56l-.19-2.97s-6.7,4.31-7.83,13.84c-.95,8.03,4.41,14.49,6.66,14.98l-.19-2.97Z"/>
          <g>
            <polygon class="cls-17" points="130.19 121.44 31.67 95.07 116.21 47.32 214.38 66.87 130.19 121.44"/>
            <polyline class="cls-17" points="214.38 66.87 214.57 69.84 130 124.28 31.87 98.05"/>
            <path class="cls-17" d="m30.32,120.93s-3.45-5.13-3-11.32c.35-4.83,1.59-8.25,4.55-11.56"/>
            <path class="cls-17" d="m31.67,95.07s-6.7,4.31-7.83,13.84c-.95,8.03,4.41,14.49,6.66,14.98"/>
            <line class="cls-17" x1="130.19" y1="121.44" x2="130" y2="124.28"/>
            <polyline class="cls-17" points="213.02 92.72 213.21 95.69 129.02 150.27 30.51 123.9"/>
            <polyline class="cls-17" points="30.32 120.93 128.83 147.3 213.02 92.72 209.89 92.1"/>
            <g>
              <polyline class="cls-17" points="210.38 91.75 127.92 144.66 29.43 119.36"/>
              <path class="cls-17" d="m211.15,72.11c-.78,1.97-1.76,5.32-2.15,10.36-.21,2.65,1.38,9.28,1.38,9.28"/>
              <path class="cls-16" d="m128.6,124.13c-.78,2.02-1.76,5.48-2.17,10.67-.21,2.73,1.37,9.56,1.37,9.56"/>
            </g>
            <g class="cls-41">
              <path class="cls-4" d="m124.83,125.86s-.05,0-.07,0l-92.67-23.83c-.16-.04-.26-.2-.21-.36.04-.16.2-.26.36-.21l92.67,23.83c.16.04.26.2.21.36-.03.13-.16.22-.29.22Z"/>
              <path class="cls-4" d="m123.29,129.72s-.05,0-.07,0l-31.8-8.18c-.16-.04-.26-.2-.21-.36.04-.16.2-.26.36-.21l31.8,8.18c.16.04.26.2.21.36-.03.13-.16.22-.29.22Z"/>
              <g class="cls-31">
                <path class="cls-6" d="m86.21,120.19s-.05,0-.07,0l-55.59-14.29c-.16-.04-.26-.2-.21-.36.04-.16.2-.26.36-.21l55.59,14.29c.16.04.26.2.21.36-.03.13-.16.22-.29.22Z"/>
              </g>
              <path class="cls-4" d="m124.25,132.56s-.05,0-.07,0l-68.8-17.69c-.16-.04-.26-.2-.21-.36.04-.16.2-.26.36-.21l68.8,17.69c.16.04.26.2.21.36-.03.13-.16.22-.29.22Z"/>
              <path class="cls-4" d="m47.45,112.81s-.05,0-.07,0l-15.86-4.08c-.16-.04-.26-.2-.21-.36.04-.16.2-.26.36-.21l15.86,4.08c.16.04.26.2.21.36-.03.13-.16.22-.29.22Z"/>
              <path class="cls-4" d="m123.51,138.37s-.05,0-.07,0l-92.67-23.83c-.16-.04-.26-.2-.21-.36.04-.16.2-.26.36-.21l92.67,23.83c.16.04.26.2.21.36-.03.13-.16.22-.29.22Z"/>
              <path class="cls-4" d="m122.74,135.97s-.05,0-.07,0l-92.67-23.83c-.16-.04-.26-.2-.21-.36.04-.16.2-.26.36-.21l92.67,23.83c.16.04.26.2.21.36-.03.13-.16.22-.29.22Z"/>
              <path class="cls-4" d="m125.11,141.62s-.05,0-.07,0l-23.76-6.11c-.16-.04-.26-.2-.21-.36.04-.16.2-.26.36-.22l23.76,6.11c.16.04.26.2.21.36-.03.13-.16.22-.29.22Z"/>
              <path class="cls-4" d="m98.84,134.86s-.05,0-.07,0l-66.4-17.07c-.16-.04-.26-.2-.21-.36.04-.16.2-.26.36-.21l66.4,17.07c.16.04.26.2.21.36-.03.13-.16.22-.29.22Z"/>
              <path class="cls-4" d="m146.69,129.49c-.1,0-.2-.05-.25-.14-.09-.14-.05-.32.09-.41l61.61-39.29c.14-.09.32-.05.41.09.09.14.05.32-.09.41l-61.61,39.29s-.11.05-.16.05Z"/>
              <path class="cls-4" d="m128.87,140.86c-.1,0-.2-.05-.25-.14-.09-.14-.05-.32.09-.41l12.54-8c.14-.09.32-.05.41.09.09.14.05.32-.09.41l-12.54,8s-.11.05-.16.05Z"/>
              <path class="cls-4" d="m128.34,138.22c-.1,0-.2-.05-.25-.14-.09-.14-.05-.32.09-.41l79.43-50.66c.14-.09.32-.05.41.09.09.14.05.32-.09.41l-79.43,50.66s-.11.05-.16.05Z"/>
              <path class="cls-4" d="m127.96,136.08c-.1,0-.2-.05-.25-.14-.09-.14-.05-.32.09-.41l79.43-50.66c.14-.09.32-.05.41.09.09.14.05.32-.09.41l-79.43,50.66s-.11.05-.16.05Z"/>
              <path class="cls-4" d="m192.29,93.17c-.1,0-.2-.05-.25-.14-.09-.14-.05-.32.09-.41l15.03-9.59c.14-.09.32-.05.41.09.09.14.05.32-.09.41l-15.03,9.59s-.11.05-.16.05Z"/>
              <path class="cls-4" d="m127.89,134.25c-.1,0-.2-.05-.25-.14-.09-.14-.05-.32.09-.41l61.21-39.04c.14-.09.32-.05.41.09.09.14.05.32-.09.41l-61.21,39.04s-.11.05-.16.05Z"/>
              <path class="cls-4" d="m128.72,131.03c-.1,0-.2-.05-.25-.14-.09-.14-.05-.32.09-.41l79.43-50.66c.14-.09.32-.05.41.09.09.14.05.32-.09.41l-79.43,50.66s-.11.05-.16.05Z"/>
              <path class="cls-4" d="m154.87,111.52c-.1,0-.2-.05-.25-.14-.09-.14-.05-.32.09-.41l53.27-33.97c.14-.09.32-.05.41.09.09.14.05.32-.09.41l-53.27,33.97s-.11.05-.16.05Z"/>
              <path class="cls-4" d="m128.7,128.2c-.1,0-.2-.05-.25-.14-.09-.14-.05-.32.09-.41l21.31-13.59c.14-.09.32-.05.41.09.09.14.05.32-.09.41l-21.31,13.59s-.11.05-.16.05Z"/>
            </g>
          </g>
        </g>
        <g>
          <g>
            <polygon class="cls-1" points="135.12 109.88 55 84.44 54.72 82.05 120.78 49.86 200.05 67.43 200.34 69.82 135.12 109.88"/>
            <polygon class="cls-7" points="134.84 107.49 54.72 82.05 51.25 76.99 120.5 47.48 200.05 67.43 134.84 107.49"/>
          </g>
          <path class="cls-8" d="m133.99,105.34l-81.01-24.88s-3.7-4.36-2.95-9.23c1.01-6.58,4.97-7.45,4.97-7.45l63.53-18.41,79.93,3.75s-1.87,2.81-2.06,9.93c-.06,2.12,1.5,7.5,1.5,7.5l-63.91,38.79Z"/>
          <g>
            <polygon class="cls-1" points="135.12 89.22 55 63.78 54.72 61.39 120.78 29.2 200.05 46.77 200.34 49.16 135.12 89.22"/>
            <polygon class="cls-7" points="134.84 86.83 54.72 61.39 120.5 26.81 200.05 46.77 134.84 86.83"/>
            <polygon class="cls-10" points="120.5 26.81 200.05 46.77 175.25 61.96 95.24 40.06 120.5 26.81"/>
            <g>
              <g>
                <polygon class="cls-10" points="123.6 78.99 73.42 63.7 106.67 46.85 154.91 60.44 123.6 78.99"/>
                <path class="cls-10" d="m123.6,79.86c-.09,0-.18-.01-.27-.04l-50.18-15.29c-.35-.11-.59-.4-.62-.75-.03-.35.16-.68.48-.85l33.25-16.85c.2-.1.44-.13.66-.06l48.24,13.59c.34.1.59.38.64.72.05.34-.12.68-.42.86l-31.31,18.54c-.14.08-.31.13-.47.13Zm-47.85-16.36l47.73,14.54,29.23-17.31-45.95-12.95-31.02,15.72Z"/>
              </g>
              <g class="cls-48">
                <polygon class="cls-2" points="123.6 78.99 73.42 63.7 106.67 46.85 154.91 60.44 123.6 78.99"/>
                <line class="cls-28" x1="106.39" y1="45.6" x2="123.1" y2="80.23"/>
                <line class="cls-28" x1="158.26" y1="60.17" x2="70.85" y2="64.25"/>
                <line class="cls-19" x1="106.39" y1="45.6" x2="123.1" y2="80.23"/>
                <line class="cls-19" x1="158.26" y1="60.17" x2="70.85" y2="64.25"/>
                <polygon class="cls-29" points="141.84 68.65 117.86 61.66 140.59 49.18 137.38 48.3 114.56 60.7 91.64 54.02 88.15 55.78 111.16 62.55 85.61 76.44 89.02 77.5 114.48 63.52 138.56 70.6 141.84 68.65"/>
                <polygon class="cls-7" points="141.84 68.65 117.86 61.66 140.59 49.18 137.38 48.3 114.56 60.7 91.64 54.02 88.15 55.78 111.16 62.55 85.61 76.44 89.02 77.5 114.48 63.52 138.56 70.6 141.84 68.65"/>
              </g>
            </g>
          </g>
          <path class="cls-9" d="m79.94,70.4l54.54,17.32,65.22-40.06-1.31-.33c-36.06,20.35-78.28,28.74-118.45,23.07Z"/>
          <path class="cls-1" d="m54.72,82.05s-2.98-4.26-2.88-9.21c.08-3.86.93-6.54,3.16-9.07l-.28-2.39s-5.19,3.16-5.69,10.75c-.42,6.4,4.15,11.81,5.97,12.3l-.28-2.39Z"/>
          <g>
            <polygon class="cls-23" points="134.84 86.83 54.72 61.39 120.5 26.81 200.05 46.77 134.84 86.83"/>
            <polyline class="cls-23" points="200.05 46.77 200.34 49.16 134.81 89.1 55 63.78"/>
            <path class="cls-23" d="m54.72,82.05s-2.98-4.26-2.88-9.21c.08-3.86.93-6.54,3.16-9.07"/>
            <path class="cls-23" d="m54.72,61.39s-5.19,3.16-5.69,10.75c-.42,6.4,4.15,11.81,5.97,12.3"/>
            <line class="cls-23" x1="134.84" y1="86.83" x2="134.81" y2="89.1"/>
            <polyline class="cls-23" points="200.05 67.43 200.34 69.82 135.12 109.88 55 84.44"/>
            <polyline class="cls-23" points="54.72 82.05 134.84 107.49 200.05 67.43 197.52 66.81"/>
            <g>
              <polyline class="cls-23" points="197.9 66.54 133.99 105.34 53.94 80.76"/>
              <path class="cls-23" d="m197.69,50.84c-.54,1.54-1.18,4.19-1.29,8.21-.06,2.12,1.5,7.5,1.5,7.5"/>
              <path class="cls-22" d="m133.67,88.92c-.54,1.59-1.18,4.31-1.29,8.46-.06,2.18,1.5,7.72,1.5,7.72"/>
            </g>
            <g class="cls-32">
              <path class="cls-4" d="m130.71,90.14s-.05,0-.07-.01l-75.32-23.15c-.13-.04-.2-.17-.16-.3.04-.13.17-.2.3-.16l75.32,23.15c.13.04.2.17.16.3-.03.1-.13.17-.23.17Z"/>
              <path class="cls-4" d="m129.64,93.17s-.05,0-.07-.01l-25.85-7.94c-.13-.04-.2-.17-.16-.3.04-.13.17-.2.3-.16l25.85,7.94c.13.04.2.17.16.3-.03.1-.13.17-.23.17Z"/>
              <path class="cls-4" d="m99.5,83.9s-.05,0-.07-.01l-45.18-13.89c-.13-.04-.2-.17-.16-.3.04-.13.17-.2.3-.16l45.18,13.89c.13.04.2.17.16.3-.03.1-.13.17-.23.17Z"/>
              <path class="cls-4" d="m130.53,95.48s-.05,0-.07-.01l-55.92-17.19c-.13-.04-.2-.17-.16-.3.04-.13.17-.2.3-.16l55.92,17.19c.13.04.2.17.16.3-.03.1-.13.17-.23.17Z"/>
              <path class="cls-4" d="m68.1,76.29s-.05,0-.07-.01l-12.89-3.96c-.13-.04-.2-.17-.16-.3.04-.13.17-.2.3-.16l12.89,3.96c.13.04.2.17.16.3-.03.1-.13.17-.23.17Z"/>
              <path class="cls-4" d="m130.18,100.11s-.05,0-.07-.01l-75.32-23.15c-.13-.04-.2-.17-.16-.3.04-.13.17-.2.3-.16l75.32,23.15c.13.04.2.17.16.3-.03.1-.13.17-.23.17Z"/>
              <path class="cls-4" d="m129.46,98.15s-.05,0-.07-.01l-75.32-23.15c-.13-.04-.2-.17-.16-.3s.17-.2.3-.16l75.32,23.15c.13.04.2.17.16.3-.03.1-.13.17-.23.17Z"/>
              <path class="cls-4" d="m131.6,102.78s-.05,0-.07-.01l-19.31-5.93c-.13-.04-.2-.17-.16-.3.04-.13.17-.2.3-.16l19.31,5.93c.13.04.2.17.16.3-.03.1-.13.17-.23.17Z"/>
              <path class="cls-4" d="m110.25,96.22s-.05,0-.07-.01l-53.97-16.59c-.13-.04-.2-.17-.16-.3s.17-.2.3-.16l53.97,16.59c.13.04.2.17.16.3-.03.1-.13.17-.23.17Z"/>
              <path class="cls-4" d="m148.4,94.01c-.08,0-.16-.04-.21-.12-.07-.11-.03-.26.08-.33l47.75-28.8c.11-.07.26-.03.33.08.07.11.03.26-.08.33l-47.75,28.8s-.08.03-.12.03Z"/>
              <path class="cls-4" d="m134.58,102.34c-.08,0-.16-.04-.21-.12-.07-.11-.03-.26.08-.33l9.72-5.86c.11-.07.26-.03.33.08.07.11.03.26-.08.33l-9.72,5.86s-.08.03-.12.03Z"/>
              <path class="cls-4" d="m134.05,100.2c-.08,0-.16-.04-.21-.12-.07-.11-.03-.26.08-.33l61.57-37.13c.11-.07.26-.03.33.08.07.11.03.26-.08.33l-61.57,37.13s-.08.03-.12.03Z"/>
              <path class="cls-4" d="m133.65,98.46c-.08,0-.16-.04-.21-.12-.07-.11-.03-.26.08-.33l61.57-37.13c.11-.07.26-.03.33.08.07.11.03.26-.08.33l-61.57,37.13s-.08.03-.12.03Z"/>
              <path class="cls-4" d="m183.43,66.89c-.08,0-.16-.04-.21-.12-.07-.11-.03-.26.08-.33l11.65-7.03c.11-.07.26-.03.33.08.07.11.03.26-.08.33l-11.65,7.03s-.08.03-.12.03Z"/>
              <path class="cls-4" d="m133.52,96.99c-.08,0-.16-.04-.21-.12-.07-.11-.03-.26.08-.33l47.45-28.61c.11-.07.26-.03.33.08.07.11.03.26-.08.33l-47.45,28.61s-.08.03-.12.03Z"/>
              <path class="cls-4" d="m134.05,94.46c-.08,0-.16-.04-.21-.12-.07-.11-.03-.26.08-.33l61.57-37.13c.11-.07.26-.03.33.08.07.11.03.26-.08.33l-61.57,37.13s-.08.03-.12.03Z"/>
              <path class="cls-4" d="m154.2,79.96c-.08,0-.16-.04-.21-.12-.07-.11-.03-.26.08-.33l41.29-24.9c.11-.07.26-.03.33.08.07.11.03.26-.08.33l-41.29,24.9s-.08.03-.12.03Z"/>
              <path class="cls-4" d="m133.92,92.19c-.08,0-.16-.04-.21-.12-.07-.11-.03-.26.08-.33l16.51-9.96c.11-.07.26-.03.33.08.07.11.03.26-.08.33l-16.51,9.96s-.08.03-.12.03Z"/>
            </g>
          </g>
          <g>
            <path class="cls-6" d="m104.24,81.71s-4.57,5.45-2.8,13.56c1.66,7.61-3.54,13.42-3.54,13.42l6.34-2.51,1.62,5.45s4.42-4.42,3.54-13.12,2.8-14.3,2.8-14.3l-7.96-2.51Z"/>
            <path class="cls-3" d="m101.11,89.96c-.15,1.6-.09,3.38.33,5.32.36,1.67.4,3.25.23,4.7,2.57.8,5.16,1.64,7.79,2.38.09-1.17.08-2.45-.06-3.84-.33-3.26-.02-6.09.5-8.35-2.92-.06-5.85-.16-8.79-.21Z"/>
            <path class="cls-6" d="m112.2,84.22l-7.96-2.51s-2.65,3.16-3.13,8.25c2.94.05,5.86.15,8.79.21.86-3.76,2.3-5.95,2.3-5.95Z"/>
            <path class="cls-22" d="m104.24,81.71s-4.57,5.45-2.8,13.56c1.66,7.61-3.54,13.42-3.54,13.42l6.34-2.51,1.62,5.45s4.42-4.42,3.54-13.12,2.8-14.3,2.8-14.3l-7.96-2.51Z"/>
          </g>
        </g>
      </g>
      <g id="TEXTS">
        <text class="cls-15" transform="translate(153.93 166.32) rotate(-32.3) scale(.69 .85) skewX(-37.68)"><tspan class="cls-49" x="0" y="0">L</tspan><tspan x="7.79" y="0">ea</tspan><tspan class="cls-47" x="24.52" y="0">r</tspan><tspan x="30.16" y="0">n English</tspan></text>
        <g>
          <text class="cls-14" transform="translate(112.02 34.27) rotate(14.7) scale(.62 .68) skewX(-49.9)"><tspan x="0" y="0">ENGLISH G</tspan><tspan class="cls-42" x="54.57" y="0">R</tspan><tspan class="cls-45" x="61.14" y="0">A</tspan><tspan x="68.49" y="0">M</tspan><tspan class="cls-43" x="78.22" y="0">M</tspan><tspan x="87.83" y="0">AR</tspan></text>
          <text class="cls-36" transform="translate(115.89 42.43) rotate(14.7) scale(.62 .68) skewX(-49.9)"><tspan class="cls-44" x="0" y="0">B</tspan><tspan x="5.02" y="0">e</tspan><tspan class="cls-39" x="9.63" y="0">g</tspan><tspan x="14.71" y="0">inners Guide</tspan></text>
        </g>
      </g>
    </g>
  </g>
</svg>