<?xml version="1.0" encoding="UTF-8"?>
<svg id="Layer_2" data-name="Layer 2" xmlns="http://www.w3.org/2000/svg" xmlns:xlink="http://www.w3.org/1999/xlink" viewBox="0 0 229.28 245.4">
  <defs>
    <style>
      .cls-1 {
        fill: #6ac8bf;
      }

      .cls-1, .cls-2, .cls-3, .cls-4, .cls-5, .cls-6, .cls-7, .cls-8, .cls-9, .cls-10, .cls-11, .cls-12, .cls-13, .cls-14, .cls-15, .cls-16, .cls-17, .cls-18, .cls-19, .cls-20, .cls-21, .cls-22, .cls-23, .cls-24, .cls-25, .cls-26, .cls-27, .cls-28, .cls-29, .cls-30, .cls-31, .cls-32, .cls-33, .cls-34, .cls-35, .cls-36, .cls-37, .cls-38, .cls-39, .cls-40, .cls-41, .cls-42 {
        stroke-width: 0px;
      }

      .cls-2, .cls-12 {
        opacity: .15;
      }

      .cls-2, .cls-23, .cls-37 {
        fill: #41383e;
      }

      .cls-3 {
        fill: #c3c6c2;
      }

      .cls-4 {
        fill: #ed6b54;
      }

      .cls-5 {
        fill: #dbd0ca;
      }

      .cls-43, .cls-30 {
        opacity: .5;
      }

      .cls-6, .cls-22 {
        fill: #bc0702;
      }

      .cls-7 {
        fill: #e8ddd6;
      }

      .cls-8, .cls-13 {
        fill: #faf0e9;
      }

      .cls-8, .cls-35 {
        opacity: .2;
      }

      .cls-44 {
        clip-path: url(#clippath-2);
      }

      .cls-9 {
        fill: #0086c9;
      }

      .cls-10 {
        fill: #ff3028;
      }

      .cls-11 {
        opacity: .05;
      }

      .cls-11, .cls-12, .cls-18, .cls-24, .cls-35 {
        fill: #fff;
      }

      .cls-14 {
        fill: #f8eee7;
      }

      .cls-15 {
        fill: #191715;
      }

      .cls-15, .cls-24, .cls-37 {
        opacity: .1;
      }

      .cls-16 {
        fill: none;
      }

      .cls-45 {
        clip-path: url(#clippath-1);
      }

      .cls-17, .cls-28 {
        fill: #dda891;
      }

      .cls-46, .cls-21, .cls-22, .cls-28 {
        opacity: .3;
      }

      .cls-19 {
        fill: #fa9f3e;
      }

      .cls-20 {
        fill: #005b8e;
      }

      .cls-21 {
        fill: #e04c38;
      }

      .cls-47 {
        clip-path: url(#clippath);
      }

      .cls-25 {
        fill: #035275;
      }

      .cls-26 {
        fill: #fca13d;
      }

      .cls-27 {
        fill: #fcceb6;
      }

      .cls-29 {
        fill: #eab964;
      }

      .cls-30 {
        fill: #0d71ab;
      }

      .cls-31 {
        fill: #fda740;
      }

      .cls-32 {
        fill: #d2cecd;
      }

      .cls-33 {
        fill: #d31107;
      }

      .cls-34 {
        fill: #2f8ed7;
      }

      .cls-36 {
        fill: #e13f4e;
      }

      .cls-38 {
        fill: #f2f2f2;
      }

      .cls-39 {
        fill: #009ca8;
      }

      .cls-40 {
        fill: #034354;
      }

      .cls-41 {
        fill: #d8d8d8;
      }

      .cls-42 {
        fill: #eeeae6;
      }
    </style>
    <clipPath id="clippath">
      <path class="cls-16" d="m130.97,75.55l-6.33,14.49,9.89-12.34-3.08-2.25c-.16-.12-.38-.07-.48.1Z"/>
    </clipPath>
    <clipPath id="clippath-1">
      <path class="cls-16" d="m133.31,76.11l-8.65,13.96,12-11.49-2.85-2.53c-.15-.13-.38-.1-.49.06Z"/>
    </clipPath>
    <clipPath id="clippath-2">
      <path class="cls-16" d="m135.32,77.21l-10.67,12.83,13.78-10.08-2.62-2.77c-.14-.14-.37-.14-.49.02Z"/>
    </clipPath>
  </defs>
  <g id="OBJECTS">
    <g>
      <path class="cls-33" d="m180.14,35.86c-1.35,0-2.45-1.1-2.45-2.45s1.1-2.45,2.45-2.45,2.45,1.1,2.45,2.45-1.1,2.45-2.45,2.45Zm0-4.24c-.99,0-1.79.8-1.79,1.79s.8,1.79,1.79,1.79,1.79-.8,1.79-1.79-.8-1.79-1.79-1.79Z"/>
      <path class="cls-39" d="m118.88,35.13v1.52c-.02.33.19.62.5.72l1.44.48c.69.23.68,1.21-.01,1.43l-1.45.46c-.31.1-.52.39-.53.71v1.52c-.02.73-.95,1.02-1.38.43l-.88-1.24c-.19-.27-.53-.38-.84-.28l-1.45.46c-.7.22-1.26-.58-.83-1.17l.9-1.22c.19-.26.2-.62,0-.88l-.88-1.24c-.42-.59.16-1.38.85-1.15l1.44.48c.31.1.65,0,.84-.27l.9-1.22c.43-.59,1.36-.27,1.36.45Z"/>
      <path class="cls-1" d="m60.25,76.07c-3.01,0-5.45-2.45-5.45-5.45s2.45-5.45,5.45-5.45,5.45,2.45,5.45,5.45-2.45,5.45-5.45,5.45Zm0-9.43c-2.19,0-3.97,1.78-3.97,3.97s1.78,3.97,3.97,3.97,3.97-1.78,3.97-3.97-1.78-3.97-3.97-3.97Z"/>
      <path class="cls-26" d="m14.68,77.55l.52,1.82c.05.19.25.3.44.25l1.84-.46c.36-.09.61.34.35.61l-1.32,1.36c-.14.14-.14.37,0,.51l1.32,1.36c.26.26,0,.7-.35.61l-1.84-.46c-.19-.05-.39.06-.44.25l-.52,1.82c-.1.35-.6.35-.7,0l-.52-1.82c-.05-.19-.25-.3-.44-.25l-1.84.46c-.36.09-.61-.34-.35-.61l1.32-1.36c.14-.14.14-.37,0-.51l-1.32-1.36c-.26-.26,0-.7.35-.61l1.84.46c.19.05.39-.06.44-.25l.52-1.82c.1-.35.6-.35.7,0Z"/>
      <path class="cls-33" d="m207.42,96.26l.57,1.99c.06.21.27.33.48.28l2-.5c.39-.1.66.38.38.66l-1.44,1.48c-.15.15-.15.4,0,.56l1.44,1.48c.28.29,0,.76-.38.66l-2-.5c-.21-.05-.42.07-.48.28l-.57,1.99c-.11.39-.66.39-.77,0l-.57-1.99c-.06-.21-.27-.33-.48-.28l-2,.5c-.39.1-.66-.38-.38-.66l1.44-1.48c.15-.15.15-.4,0-.56l-1.44-1.48c-.28-.29,0-.76.38-.66l2,.5c.21.05.42-.07.48-.28l.57-1.99c.11-.39.66-.39.77,0Z"/>
      <path class="cls-33" d="m156.55,135.94l10.27,2.33c.75.17,1.4-.53,1.17-1.26l-3.12-10.06c-.23-.73-1.16-.94-1.68-.38l-7.15,7.73c-.52.56-.24,1.48.51,1.65Z"/>
      <path class="cls-20" d="m67.7,7.26l4.89-2.24c.7-.32.79-1.27.16-1.71l-4.39-3.12c-.62-.44-1.49-.04-1.57.72l-.5,5.36c-.07.76.71,1.32,1.4,1Z"/>
      <path class="cls-26" d="m137.86,68.57l2.7.99c.72.26,1.45-.35,1.32-1.1l-.49-2.83c-.13-.75-1.03-1.08-1.62-.59l-2.21,1.84c-.59.49-.43,1.43.29,1.7Z"/>
      <path class="cls-33" d="m70.57,35.59c.65,1.03.8,2.15.45,3.36-.35,1.21-1.1,2.18-2.25,2.9-.37.23-.79.42-1.25.55-.46.13-.93.2-1.41.21-.87-1.18-1.66-2.27-2.35-3.28-.69-1.01-1.39-2.06-2.07-3.15-.33-.52-.58-.92-.75-1.2-.17-.28-.34-.54-.49-.8.3-.48.66-.93,1.07-1.34.41-.41.85-.77,1.33-1.07,1.01-.64,1.91-.94,2.69-.92.78.03,1.38.38,1.81,1.07.27.43.41.89.42,1.37,0,.48-.11.97-.37,1.46.69-.24,1.3-.28,1.86-.13.55.15.99.47,1.3.98Zm-3.3,5.23c.17-.01.34-.04.5-.09.16-.05.3-.12.43-.2.53-.33.85-.83.98-1.49.12-.66.01-1.26-.32-1.8-.28-.44-.62-.7-1.01-.76-.4-.06-.85.06-1.36.38-.18.11-.37.26-.56.44-.19.18-.37.37-.54.58.11.17.22.35.33.53.11.18.22.35.33.53.22.35.43.67.63.98.2.31.4.61.61.9Zm-1.68-7.43c-.25-.4-.57-.63-.95-.68-.39-.05-.82.07-1.29.37-.07.04-.15.1-.23.17-.08.07-.17.15-.26.23.23.44.48.9.75,1.39.27.49.6,1.06.98,1.7.67-.55,1.09-1.09,1.25-1.61.17-.52.09-1.04-.24-1.56Z"/>
      <path class="cls-20" d="m186.62,115.59c.42.02.84.1,1.26.24.42.14.74.3.97.49-.32,1.51-.97,2.62-1.96,3.32-.99.7-2.25.94-3.79.73-1.54-.21-2.66-.9-3.37-2.05-.71-1.16-.93-2.68-.67-4.57.33-2.37,1.19-4.27,2.59-5.68,1.4-1.41,3.01-1.99,4.84-1.74,1.19.16,2.05.66,2.6,1.5.55.83.76,1.96.63,3.38-.53.17-.99.26-1.4.28-.4.02-.89-.01-1.46-.1.17-1.03.16-1.81-.02-2.35-.18-.54-.55-.84-1.1-.92-.72-.1-1.4.36-2.06,1.39-.65,1.03-1.1,2.35-1.32,3.99-.21,1.53-.17,2.73.13,3.6.3.87.83,1.36,1.6,1.47.73.1,1.32-.11,1.76-.64.45-.53.7-1.3.76-2.32Z"/>
      <path class="cls-26" d="m118.36,105.04c-.31.11-.66.17-1.04.19-.38.02-.83,0-1.36-.06.11-.83.19-1.61.24-2.34.05-.73.09-1.43.1-2.09-.65-.16-1.26-.3-1.85-.42-.59-.11-1.15-.2-1.68-.26-.35.48-.68.93-.99,1.33-.32.41-.63.78-.94,1.12-.36-.17-.68-.37-.96-.62-.28-.25-.49-.52-.63-.81,1.21-1.29,2.28-2.6,3.22-3.93.94-1.33,1.98-3.02,3.1-5.08.38.11.73.22,1.03.33.3.11.62.26.95.43.5,1.79.81,3.67.94,5.66.13,1.98.09,4.17-.14,6.55Zm-2.46-10.13c-.36.67-.72,1.32-1.09,1.94-.37.63-.73,1.22-1.1,1.78.47.06.92.12,1.35.19.43.07.84.15,1.24.24-.02-.75-.07-1.46-.13-2.16-.07-.69-.16-1.36-.27-2Z"/>
      <g>
        <g>
          <g>
            <path class="cls-9" d="m129.58,78.93l-2.1-1.4c-.15-.1-.35-.02-.39.16l-2.44,12.38,4.92-11.14Z"/>
            <path class="cls-30" d="m126.54,80.53l-1.89,9.56,4.92-11.14-.13-.08c-.67.57-1.84,1.45-2.91,1.67Z"/>
          </g>
          <g>
            <path class="cls-5" d="m130.99,75.58l-6.34,14.46,9.9-12.32-3.08-2.25c-.16-.12-.38-.07-.48.1Z"/>
            <g class="cls-43">
              <g class="cls-47">
                <g>
                  <rect class="cls-34" x="115.24" y="84.25" width="22.24" height=".22" transform="translate(-9.93 151.49) rotate(-59.95)"/>
                  <rect class="cls-34" x="116.37" y="84.9" width="22.24" height=".22" transform="translate(-9.9 152.87) rotate(-59.98)"/>
                  <rect class="cls-34" x="117.5" y="85.55" width="22.24" height=".22" transform="translate(-9.93 154.09) rotate(-59.95)"/>
                  <rect class="cls-34" x="118.62" y="86.2" width="22.24" height=".22" transform="translate(-9.9 155.47) rotate(-59.98)"/>
                  <rect class="cls-34" x="119.75" y="86.85" width="22.24" height=".22" transform="translate(-9.93 156.71) rotate(-59.96)"/>
                  <rect class="cls-34" x="120.88" y="87.51" width="22.24" height=".22" transform="translate(-9.94 158) rotate(-59.95)"/>
                  <rect class="cls-34" x="122" y="88.16" width="22.24" height=".22" transform="translate(-9.93 159.33) rotate(-59.96)"/>
                  <rect class="cls-34" x="123.13" y="88.81" width="22.24" height=".22" transform="translate(-9.94 160.61) rotate(-59.95)"/>
                  <rect class="cls-34" x="124.26" y="89.46" width="22.24" height=".22" transform="translate(-9.93 161.93) rotate(-59.96)"/>
                  <rect class="cls-34" x="125.38" y="90.11" width="22.24" height=".22" transform="translate(-9.93 163.23) rotate(-59.96)"/>
                  <rect class="cls-34" x="136.71" y="71.27" width=".22" height="14.33" transform="translate(.43 157.62) rotate(-59.96)"/>
                  <rect class="cls-34" x="136.04" y="72.43" width=".22" height="14.33" transform="translate(-.9 157.62) rotate(-59.96)"/>
                  <rect class="cls-34" x="135.37" y="73.59" width=".22" height="14.33" transform="translate(-2.24 157.62) rotate(-59.96)"/>
                  <rect class="cls-34" x="134.7" y="74.75" width=".22" height="14.33" transform="translate(-3.58 157.61) rotate(-59.96)"/>
                  <rect class="cls-34" x="134.03" y="75.91" width=".22" height="14.33" transform="translate(-4.92 157.61) rotate(-59.96)"/>
                  <rect class="cls-34" x="133.36" y="77.06" width=".22" height="14.33" transform="translate(-6.25 157.61) rotate(-59.96)"/>
                  <rect class="cls-34" x="132.69" y="78.22" width=".22" height="14.33" transform="translate(-7.59 157.61) rotate(-59.96)"/>
                  <rect class="cls-34" x="132.02" y="79.38" width=".22" height="14.33" transform="translate(-8.93 157.61) rotate(-59.96)"/>
                  <rect class="cls-34" x="131.35" y="80.54" width=".22" height="14.33" transform="translate(-10.27 157.61) rotate(-59.96)"/>
                  <rect class="cls-34" x="130.68" y="81.7" width=".22" height="14.33" transform="translate(-11.61 157.61) rotate(-59.96)"/>
                  <rect class="cls-34" x="130.01" y="82.86" width=".22" height="14.33" transform="translate(-12.94 157.61) rotate(-59.96)"/>
                  <rect class="cls-34" x="129.34" y="84.02" width=".22" height="14.33" transform="translate(-14.28 157.61) rotate(-59.96)"/>
                  <rect class="cls-34" x="128.67" y="85.17" width=".22" height="14.33" transform="translate(-15.62 157.6) rotate(-59.96)"/>
                  <rect class="cls-34" x="128" y="86.33" width=".22" height="14.33" transform="translate(-16.96 157.6) rotate(-59.96)"/>
                  <rect class="cls-34" x="127.33" y="87.49" width=".22" height="14.33" transform="translate(-18.29 157.6) rotate(-59.96)"/>
                  <rect class="cls-34" x="126.66" y="88.65" width=".22" height="14.33" transform="translate(-19.63 157.6) rotate(-59.96)"/>
                  <rect class="cls-34" x="125.99" y="89.81" width=".22" height="14.33" transform="translate(-20.97 157.6) rotate(-59.96)"/>
                </g>
              </g>
            </g>
          </g>
          <g>
            <path class="cls-7" d="m133.32,76.13l-8.66,13.94,12.01-11.46-2.85-2.53c-.15-.13-.38-.1-.49.06Z"/>
            <g class="cls-43">
              <g class="cls-45">
                <g>
                  <rect class="cls-34" x="116.77" y="84.33" width="22.24" height=".22" transform="translate(-15.08 139.62) rotate(-54.54)"/>
                  <rect class="cls-34" x="117.83" y="85.08" width="22.24" height=".22" transform="translate(-15.25 140.8) rotate(-54.54)"/>
                  <rect class="cls-34" x="118.89" y="85.84" width="22.24" height=".22" transform="translate(-15.41 142) rotate(-54.55)"/>
                  <rect class="cls-34" x="119.95" y="86.59" width="22.24" height=".22" transform="translate(-15.59 143.16) rotate(-54.54)"/>
                  <rect class="cls-34" x="121.01" y="87.35" width="22.24" height=".22" transform="translate(-15.74 144.37) rotate(-54.55)"/>
                  <rect class="cls-34" x="122.07" y="88.1" width="22.24" height=".22" transform="translate(-15.92 145.54) rotate(-54.55)"/>
                  <rect class="cls-34" x="123.13" y="88.85" width="22.24" height=".22" transform="translate(-16.09 146.73) rotate(-54.55)"/>
                  <rect class="cls-34" x="124.19" y="89.61" width="22.24" height=".22" transform="translate(-16.26 147.91) rotate(-54.55)"/>
                  <rect class="cls-34" x="125.25" y="90.36" width="22.24" height=".22" transform="translate(-16.43 149.09) rotate(-54.55)"/>
                  <rect class="cls-34" x="126.31" y="91.12" width="22.24" height=".22" transform="translate(-16.59 150.28) rotate(-54.55)"/>
                  <rect class="cls-34" x="138.75" y="72.36" width=".22" height="14.33" transform="translate(-6.46 146.52) rotate(-54.55)"/>
                  <rect class="cls-34" x="137.97" y="73.45" width=".22" height="14.33" transform="translate(-7.67 146.35) rotate(-54.55)"/>
                  <rect class="cls-34" x="137.19" y="74.54" width=".22" height="14.33" transform="translate(-8.89 146.17) rotate(-54.55)"/>
                  <rect class="cls-34" x="136.42" y="75.63" width=".22" height="14.33" transform="translate(-10.1 146) rotate(-54.55)"/>
                  <rect class="cls-34" x="135.64" y="76.72" width=".22" height="14.33" transform="translate(-11.32 145.82) rotate(-54.55)"/>
                  <rect class="cls-34" x="134.87" y="77.81" width=".22" height="14.33" transform="translate(-12.53 145.65) rotate(-54.55)"/>
                  <rect class="cls-34" x="134.09" y="78.9" width=".22" height="14.33" transform="translate(-13.74 145.47) rotate(-54.55)"/>
                  <rect class="cls-34" x="133.31" y="79.99" width=".22" height="14.33" transform="translate(-14.96 145.3) rotate(-54.55)"/>
                  <rect class="cls-34" x="132.54" y="81.08" width=".22" height="14.33" transform="translate(-16.17 145.13) rotate(-54.55)"/>
                  <rect class="cls-34" x="131.76" y="82.17" width=".22" height="14.33" transform="translate(-17.39 144.95) rotate(-54.55)"/>
                  <rect class="cls-34" x="130.98" y="83.26" width=".22" height="14.33" transform="translate(-18.6 144.78) rotate(-54.55)"/>
                  <rect class="cls-34" x="130.21" y="84.35" width=".22" height="14.33" transform="translate(-19.82 144.6) rotate(-54.55)"/>
                  <rect class="cls-34" x="129.43" y="85.45" width=".22" height="14.33" transform="translate(-21.03 144.43) rotate(-54.55)"/>
                  <rect class="cls-34" x="128.66" y="86.54" width=".22" height="14.33" transform="translate(-22.24 144.25) rotate(-54.55)"/>
                  <rect class="cls-34" x="127.88" y="87.63" width=".22" height="14.33" transform="translate(-23.46 144.08) rotate(-54.55)"/>
                  <rect class="cls-34" x="127.1" y="88.72" width=".22" height="14.33" transform="translate(-24.67 143.9) rotate(-54.55)"/>
                  <rect class="cls-34" x="126.33" y="89.81" width=".22" height="14.33" transform="translate(-25.89 143.73) rotate(-54.55)"/>
                </g>
              </g>
            </g>
          </g>
          <g>
            <path class="cls-14" d="m135.32,77.24l-10.67,12.83,13.78-10.08-2.62-2.77c-.14-.14-.37-.14-.49.02Z"/>
            <g class="cls-43">
              <g class="cls-44">
                <g>
                  <rect class="cls-34" x="118.08" y="84.93" width="22.24" height=".22" transform="translate(-19.31 128.26) rotate(-49.58)"/>
                  <rect class="cls-34" x="119.07" y="85.77" width="22.24" height=".22" transform="translate(-19.59 129.36) rotate(-49.6)"/>
                  <rect class="cls-34" x="120.06" y="86.62" width="22.24" height=".22" transform="translate(-19.9 130.36) rotate(-49.58)"/>
                  <rect class="cls-34" x="121.05" y="87.46" width="22.24" height=".22" transform="translate(-20.19 131.44) rotate(-49.59)"/>
                  <rect class="cls-34" x="122.04" y="88.3" width="22.24" height=".22" transform="translate(-20.48 132.49) rotate(-49.59)"/>
                  <rect class="cls-34" x="123.03" y="89.15" width="22.24" height=".22" transform="translate(-20.78 133.52) rotate(-49.58)"/>
                  <rect class="cls-34" x="124.02" y="89.99" width="22.24" height=".22" transform="translate(-21.06 134.62) rotate(-49.6)"/>
                  <rect class="cls-34" x="125.01" y="90.84" width="22.24" height=".22" transform="translate(-21.36 135.64) rotate(-49.59)"/>
                  <rect class="cls-34" x="126" y="91.68" width="22.24" height=".22" transform="translate(-21.65 136.72) rotate(-49.6)"/>
                  <rect class="cls-34" x="127" y="92.52" width="22.24" height=".22" transform="translate(-21.95 137.75) rotate(-49.59)"/>
                  <rect class="cls-34" x="140.44" y="73.93" width=".22" height="14.33" transform="translate(-12.31 135.54) rotate(-49.59)"/>
                  <rect class="cls-34" x="139.57" y="74.95" width=".22" height="14.33" transform="translate(-13.39 135.24) rotate(-49.59)"/>
                  <rect class="cls-34" x="138.7" y="75.97" width=".22" height="14.33" transform="translate(-14.47 134.94) rotate(-49.59)"/>
                  <rect class="cls-34" x="137.83" y="76.99" width=".22" height="14.33" transform="translate(-15.55 134.64) rotate(-49.59)"/>
                  <rect class="cls-34" x="136.97" y="78.01" width=".22" height="14.33" transform="translate(-16.63 134.33) rotate(-49.59)"/>
                  <rect class="cls-34" x="136.1" y="79.03" width=".22" height="14.33" transform="translate(-17.72 134.03) rotate(-49.59)"/>
                  <rect class="cls-34" x="135.23" y="80.05" width=".22" height="14.33" transform="translate(-18.8 133.73) rotate(-49.59)"/>
                  <rect class="cls-34" x="134.36" y="81.07" width=".22" height="14.33" transform="translate(-19.88 133.43) rotate(-49.59)"/>
                  <rect class="cls-34" x="133.5" y="82.08" width=".22" height="14.33" transform="translate(-20.96 133.13) rotate(-49.59)"/>
                  <rect class="cls-34" x="132.63" y="83.1" width=".22" height="14.33" transform="translate(-22.04 132.82) rotate(-49.59)"/>
                  <rect class="cls-34" x="131.76" y="84.12" width=".22" height="14.33" transform="translate(-23.12 132.52) rotate(-49.59)"/>
                  <rect class="cls-34" x="130.89" y="85.14" width=".22" height="14.33" transform="translate(-24.2 132.22) rotate(-49.59)"/>
                  <rect class="cls-34" x="130.03" y="86.16" width=".22" height="14.33" transform="translate(-25.28 131.92) rotate(-49.59)"/>
                  <rect class="cls-34" x="129.16" y="87.18" width=".22" height="14.33" transform="translate(-26.36 131.61) rotate(-49.59)"/>
                  <rect class="cls-34" x="128.29" y="88.2" width=".22" height="14.33" transform="translate(-27.45 131.31) rotate(-49.59)"/>
                  <rect class="cls-34" x="127.42" y="89.22" width=".22" height="14.33" transform="translate(-28.53 131.01) rotate(-49.59)"/>
                  <rect class="cls-34" x="126.56" y="90.24" width=".22" height="14.33" transform="translate(-29.61 130.71) rotate(-49.59)"/>
                </g>
              </g>
            </g>
          </g>
          <path class="cls-36" d="m129.45,84.91h22.07c1.44,0,2.62,1.17,2.62,2.62v14.96h-27.31v-14.96c0-1.44,1.17-2.62,2.62-2.62Z" transform="translate(109.39 -72.28) rotate(45.69)"/>
          <path class="cls-34" d="m129.46,84.99h22.07c1.44,0,2.62,1.17,2.62,2.62v14.96h-27.31v-14.96c0-1.44,1.17-2.62,2.62-2.62Z" transform="translate(109.45 -72.26) rotate(45.69)"/>
          <path class="cls-30" d="m146.96,106.45c-4.15-.88-8.9-4.03-12.7-8.84-3-3.81-4.85-7.95-5.44-11.61l-4.17,4.07,19.08,19.54,3.23-3.16Z"/>
          <g>
            <path class="cls-14" d="m151.78,98.15l-1.3,1.33c-.69.71-1.83.72-2.54.03h0c-.71-.69-.72-1.83-.03-2.54l1.3-1.33c.69-.71,1.83-.72,2.54-.03h0c.71.69.72,1.83.03,2.54Z"/>
            <g>
              <path class="cls-34" d="m150.84,95.17l-3.29,3.37s-.07.03-.09,0c-.03-.03-.03-.07,0-.09l3.29-3.37s.07-.03.09,0c.03.03.03.07,0,.09Z"/>
              <path class="cls-34" d="m151.54,95.86l-3.29,3.37s-.07.03-.09,0c-.03-.03-.03-.07,0-.09l3.29-3.37s.07-.03.09,0c.03.03.03.07,0,.09Z"/>
              <path class="cls-34" d="m152.25,96.55l-3.29,3.37s-.07.03-.09,0c-.03-.03-.03-.07,0-.09l3.29-3.37s.07-.03.09,0,.03.07,0,.09Z"/>
            </g>
          </g>
          <g>
            <path class="cls-14" d="m151.8,98.23l-1.3,1.33c-.69.71-1.83.72-2.54.03h0c-.71-.69-.72-1.83-.03-2.54l1.3-1.33c.69-.71,1.83-.72,2.54-.03h0c.71.69.72,1.83.03,2.54Z"/>
            <g>
              <path class="cls-34" d="m150.86,95.26l-3.29,3.37s-.07.03-.09,0c-.03-.03-.03-.07,0-.09l3.29-3.37s.07-.03.09,0c.03.03.03.07,0,.09Z"/>
              <path class="cls-34" d="m151.56,95.95l-3.29,3.37s-.07.03-.09,0c-.03-.03-.03-.07,0-.09l3.29-3.37s.07-.03.09,0c.03.03.03.07,0,.09Z"/>
              <path class="cls-34" d="m152.27,96.64l-3.29,3.37s-.07.03-.09,0c-.03-.03-.03-.07,0-.09l3.29-3.37s.07-.03.09,0c.03.03.03.07,0,.09Z"/>
            </g>
          </g>
          <path class="cls-24" d="m138.04,92.38c-3.25-3.51-4.53-7.61-2.87-9.14,1.66-1.54,5.64.07,8.89,3.58s4.53,7.61,2.87,9.14c-1.66,1.54-5.64-.07-8.89-3.58Z"/>
        </g>
        <g>
          <g>
            <polygon class="cls-42" points="211.36 70.02 213.46 75.16 221.56 69.39 229.16 56.36 211.36 70.02"/>
            <path class="cls-2" d="m225.82,58.92c1.6,2.44-10.11,11.9-13.15,14.29l.79,1.94,8.1-5.77,7.59-13.03-3.34,2.56Z"/>
            <path class="cls-2" d="m217.31,72.51l-2.65-.74c.09.22.16.45.2.7.11.71-.03,1.41-.36,1.99l2.82-1.94Z"/>
            <polygon class="cls-38" points="229.16 56.36 204.86 66.45 211.36 70.02 229.16 56.36"/>
            <polygon class="cls-18" points="229.16 56.36 214.07 71.56 222.13 75.75 229.16 56.36"/>
            <path class="cls-37" d="m229.16,56.36l-6.11,6.16c1.33-.85,2.53-1.43,3-1.14.46.29.52,1.28.41,2.42l2.7-7.44Z"/>
            <path class="cls-37" d="m220.45,63.1l8.84-6.78-10.15,4.22c1.73-.4,3.07-.62,3.35-.41.3.22-.62,1.42-2.04,2.98Z"/>
          </g>
          <path class="cls-34" d="m219.89,84.14c-1.47-.1-2.65-.73-3.34-1.79-.26-.4-.44-.85-.53-1.32-.23-.07-.46-.15-.69-.26-1.1-.52-1.83-1.24-2.15-2.14-.47-1.31.08-2.51.11-2.56.05-.1.17-.14.27-.1.1.05.14.17.1.27-.05.11-1.23,2.71,1.85,4.16.15.07.3.13.46.18-.04-.58.04-1.17.27-1.71.51-1.23,1.64-2.19,2.89-2.44.98-.19,1.89.07,2.56.75.52.53.53,1.25.01,1.99-.86,1.22-3.09,2.35-5.23,1.95.09.35.23.69.43.99.66,1.02,1.84,1.59,3.3,1.62.11,0,.2.09.2.21,0,.11-.1.2-.21.2-.1,0-.2,0-.3-.01Zm-3.51-3.44c2.01.43,4.19-.63,4.98-1.76.28-.4.52-.98.03-1.47-.58-.58-1.36-.81-2.2-.64-1.12.22-2.13,1.08-2.59,2.2-.22.53-.29,1.11-.22,1.67Z"/>
        </g>
        <g>
          <g>
            <g>
              <rect class="cls-31" x="31.67" y="84.95" width="5.34" height="15.77" transform="translate(-54.15 48.5) rotate(-43.08)"/>
              <g>
                <rect class="cls-19" x="32.62" y="86.97" width=".71" height="15.23" transform="translate(-55.71 48.03) rotate(-43.08)"/>
                <rect class="cls-19" x="33.25" y="86.38" width=".71" height="15.23" transform="translate(-55.14 48.3) rotate(-43.08)"/>
                <rect class="cls-19" x="33.88" y="85.79" width=".71" height="15.23" transform="translate(-54.56 48.56) rotate(-43.08)"/>
                <rect class="cls-19" x="34.52" y="85.2" width=".71" height="15.23" transform="translate(-54 48.85) rotate(-43.08)"/>
                <rect class="cls-19" x="35.15" y="84.61" width=".71" height="15.23" transform="translate(-53.42 49.12) rotate(-43.08)"/>
                <rect class="cls-19" x="35.78" y="84.02" width=".71" height="15.23" transform="translate(-52.85 49.39) rotate(-43.09)"/>
              </g>
              <g>
                <path class="cls-29" d="m40.93,97.49s-1.04-.14-.86.81c0,0-.99-.2-.83.78l-.02.02c-.14-.05-.96-.3-.73.69h-.01c-.12,0-.97-.08-.68.65l4.78,1.27-.87-4.93s-.78-.39-.76.71Z"/>
                <path class="cls-23" d="m40.04,101.03s.68-1,2.06-1.93l.46,2.6-2.52-.67Z"/>
              </g>
              <path class="cls-4" d="m28.17,83.91h0c1.47,0,2.67,1.2,2.67,2.67v1.98h-5.35v-1.98c0-1.48,1.2-2.67,2.67-2.67Z" transform="translate(-51.31 42.5) rotate(-43.08)"/>
              <path class="cls-24" d="m28.3,83.66c.17.18-.3.9-1.05,1.6-.75.7-1.49,1.12-1.66.94-.17-.18.3-.9,1.05-1.6.75-.7,1.49-1.12,1.66-.94Z"/>
              <path class="cls-21" d="m28.63,83.38s.7.26-1.21,2.06c-1.92,1.78-2.14,1.07-2.14,1.07-.04.42.31.89.31.89l1.79,1.92,1.92-1.79.07-.06,1.92-1.79-1.79-1.92s-.44-.38-.87-.37Z"/>
              <rect class="cls-32" x="26.87" y="86.85" width="5.34" height="1.69" transform="translate(-51.94 43.82) rotate(-43.08)"/>
            </g>
            <path class="cls-12" d="m33.37,91.41c1.32,1.63,1.92,3.32,1.35,3.78-.57.46-2.09-.49-3.41-2.12-1.32-1.63-1.92-3.32-1.35-3.78.57-.46,2.09.49,3.41,2.12Z"/>
          </g>
          <path class="cls-23" d="m43.26,108.3c-.2-.3-.24-.58-.13-.84.35-.82,2.1-1.02,4.74-1.22,1.1-.08,2.6-.2,2.85-.41.03-.1,0-.19-.05-.28,0,0,0,0,0,0-.14-.21-.89-.91-4.45-1.14-3.42-.22-4.28-1.45-4.31-1.51-.09-.14-.06-.33.08-.42.14-.09.32-.06.42.08.02.03.81,1.05,3.85,1.24,1.89.12,4.27.46,4.91,1.4.16.25.22.54.13.83-.17.54-1.22.64-3.37.81-1.5.12-4,.31-4.23.85-.05.11.08.28.16.38,1.7,2.02,5.51,2.38,5.55,2.38.17.01.29.16.28.33-.01.17-.16.29-.33.28-.17-.01-4.1-.38-5.96-2.59-.05-.05-.09-.11-.12-.16Z"/>
        </g>
      </g>
    </g>
    <g>
      <g>
        <path class="cls-33" d="m68.41,87.97c8.27-.27,15.13,4.04,15.31,9.63.09,2.78-1.49,5.34-4.11,7.26-.04.45-.12,2.62,1.56,3.34.24.1.17.46-.09.48-1.37.08-3.33-.2-4.43-2.13-2.2.97-4.79,1.56-7.58,1.65-8.27.27-15.13-4.04-15.31-9.63s6.38-10.33,14.65-10.6Z"/>
        <path class="cls-26" d="m97.03,4.86c-8.62-.28-15.76,4.21-15.95,10.03-.09,2.89,1.55,5.57,4.28,7.56.04.47.12,2.72-1.62,3.48-.25.11-.17.48.1.5,1.42.08,3.47-.2,4.62-2.21,2.3,1.01,4.99,1.63,7.89,1.72,8.62.28,15.76-4.21,15.95-10.03.19-5.82-6.65-10.76-15.27-11.04Z"/>
        <path class="cls-20" d="m204.85,24.46c-8.9-.29-16.28,4.35-16.48,10.36-.1,2.99,1.6,5.75,4.42,7.81.04.48.12,2.81-1.67,3.59-.26.11-.18.5.1.51,1.47.09,3.59-.21,4.77-2.29,2.37,1.04,5.16,1.68,8.15,1.78,8.9.29,16.28-4.35,16.48-10.36.2-6.01-6.86-11.12-15.77-11.41Z"/>
      </g>
      <g>
        <path class="cls-20" d="m34.42,70.04c7.98-3.89,13.48-12.07,13.48-21.54,0-13.23-10.72-23.95-23.95-23.95S0,35.27,0,48.5s10.72,23.95,23.95,23.95c1.41,0,2.8-.13,4.15-.37l18,19.8-11.67-21.84Z"/>
        <path class="cls-1" d="m106.32,83.18c6.47-3.15,10.93-9.79,10.93-17.47,0-10.73-8.7-19.42-19.42-19.42s-19.42,8.7-19.42,19.42,8.7,19.42,19.42,19.42c1.15,0,2.27-.11,3.36-.3l2.24,13.31,2.89-14.97Z"/>
        <path class="cls-26" d="m167.8,95.15c-7.98-3.89-13.48-12.07-13.48-21.54,0-13.23,10.72-23.95,23.95-23.95s23.95,10.72,23.95,23.95-10.72,23.95-23.95,23.95c-1.41,0-2.8-.13-4.15-.37l-18,19.8,11.67-21.84Z"/>
        <path class="cls-33" d="m140.18,45.42c-6.16-3-10.41-9.32-10.41-16.64,0-10.22,8.28-18.5,18.5-18.5s18.5,8.28,18.5,18.5-8.28,18.5-18.5,18.5c-1.09,0-2.16-.1-3.2-.28l-9.01,6.22,4.13-7.79Z"/>
        <path class="cls-39" d="m183.92,150.81c-3.86-5.67-4.4-13.26-.77-19.61,5.07-8.87,16.38-11.94,25.24-6.87,8.87,5.07,11.94,16.38,6.87,25.24-5.07,8.87-16.38,11.94-25.24,6.87-.95-.54-1.83-1.16-2.64-1.84l-10.91.92,7.45-4.71Z"/>
      </g>
    </g>
    <g>
      <path class="cls-41" d="m47.48,127.79s-.57-16.84-15.7-24.23c0,0-10.69-2.39-11.83-6.83,0,0-1.48,2.16-1.48,4.66l24.57,34.02s7.28,3.75,4.44-7.62Z"/>
      <path class="cls-13" d="m38.95,112.09c-5.54-5.45-22.52-12.28-22.52-12.28l-4.72,2.88c2.78,1.46,6.98,5.36,6.98,5.36-3.75-2.23-7.79-3.71-8.99-4.14l-2.34,1.43,42.75,34.4s-2.99-19.62-11.15-27.64Z"/>
      <path class="cls-41" d="m45.49,135.27s4.44-19.37,26.01-20.98c21.27-1.59,49.14-3.32,53.36-5.37l2.63,3.08-82,23.26Z"/>
      <path class="cls-13" d="m45.66,132.68s1.73-5.74,16.5-11.93c14.77-6.18,35.72-4.67,49.73-6.94,14.01-2.27,16-2.99,16-2.99l5.26,5.4-86.14,22.97-1.35-6.5Z"/>
      <g>
        <path class="cls-10" d="m136.84,115.44l47.48,97.61c1.09,2.23-.3,4.88-2.75,5.26l-75.41,11.33-51.04-98.17,77.58-18.01c1.67-.38,3.39.44,4.14,1.98Z"/>
        <path class="cls-6" d="m131.89,114.16c1.67-.38,3.39.44,4.14,1.98l47.8,98.19c.4.82.46,1.7.26,2.5.75-1.05.95-2.48.33-3.77l-47.8-98.19c-.75-1.54-2.47-2.36-4.14-1.98l-77.58,18.08.53.95,76.47-17.75Z"/>
        <path class="cls-6" d="m6.06,105.2h0c1.14-.11,2.28.22,3.18.94l30,23.97,3.2,5.78L6.06,105.2Z"/>
        <path class="cls-40" d="m38.59,130.96l.64-.86s1.7,4.17,15.66.86l2.49,4.82-17.9,2.26-.89-7.08Z"/>
        <path class="cls-25" d="m55.38,131.89l50.78,97.75s-12.01,5.36-16.09.21l-51.48-98.89s2.85,7.15,16.79.93Z"/>
        <path class="cls-10" d="m38.59,130.96L6.38,105.32c-.58-.46-1.38.2-1.04.86l50.99,97.45c.46.88,1.12,1.66,1.91,2.26l31.82,23.97-51.48-98.89Z"/>
        <path class="cls-22" d="m38.59,130.96L6.38,105.32c-.58-.46-1.38.2-1.04.86l1.03,1.97c10.5,10.48,33.92,35.67,47.49,64.3,9.57,20.21,6.96,28.16,2.48,31.19.46.88,1.11,1.65,1.91,2.24l31.82,23.97-51.48-98.89Z"/>
        <path class="cls-22" d="m183.08,210.48c-6.9,3.54-31.21,13.89-61.43,2.67-28.75-10.67-44.57-65.09-49.72-86.26l-17.05,4.06,51.19,98.59,75.5-11.25c2.45-.38,3.84-3.03,2.75-5.26l-1.25-2.56Z"/>
        <g class="cls-46">
          <path class="cls-40" d="m38.85,131.37l-.16-.3s.05.12.16.3Z"/>
          <path class="cls-40" d="m54.89,130.96c.02,2.08,48.71,90.03,36.29,89.97-7.67-.04-41.12-78.6-52.23-89.4-.04-.06-.07-.11-.1-.16l51.33,98.59c4.08,5.15,16.09-.21,16.09-.21l-51.37-98.78Z"/>
        </g>
        <ellipse class="cls-11" cx="70.62" cy="175.93" rx="4.28" ry="40.09" transform="translate(-69.71 48.47) rotate(-25.88)"/>
        <path class="cls-13" d="m110.7,222.59c-2.08,0-4.03-1.16-5.01-3.05l-41.61-80.08c-.5-.96-.53-2.07-.07-3.06.45-.98,1.32-1.69,2.37-1.93l64.43-14.96c1.82-.42,3.67.47,4.48,2.15l41.78,85.84c.56,1.15.54,2.47-.05,3.6-.59,1.14-1.66,1.9-2.93,2.1l-62.56,9.32c-.28.04-.56.06-.83.06Zm21.01-101.63c-.18,0-.37.02-.55.06l-64.43,14.96c-.59.14-1.07.53-1.32,1.08-.25.55-.24,1.17.04,1.7l41.61,80.08c.81,1.56,2.52,2.43,4.25,2.17l62.56-9.32c.77-.12,1.43-.59,1.79-1.29.37-.7.38-1.5.03-2.21l-41.78-85.84c-.42-.86-1.28-1.38-2.2-1.38Z"/>
      </g>
      <g>
        <path class="cls-3" d="m47.38,131.84c4.64-5.33,11.01-8.89,17.57-11.34,6.63-2.44,13.7-3.35,20.72-3.79,14.01-.85,28.14-1.26,41.81-4.7-13.58,3.84-27.79,4.32-41.78,5.22-10.46.5-21.08,2.57-30.13,8.09-3,1.81-5.87,3.91-8.2,6.53h0Z"/>
        <path class="cls-3" d="m50.15,130.91c7.52-7.05,17.73-10.86,27.95-11.47,11.91-.96,23.9-1.01,35.7-3.02,5.05-.86,10.04-2.01,14.94-3.5-12.97,4.46-26.76,5.71-40.38,6.36-6.78.42-13.68.47-20.29,2.2-6.55,1.77-12.83,4.91-17.93,9.43h0Z"/>
        <path class="cls-3" d="m52.46,130.61c6.67-5.32,15.04-8.58,23.53-9.36,8.36-.53,17.19-.96,25.53-1.72-4.23.58-8.47.99-12.73,1.34-4.16.38-8.59.54-12.76.89-8.45.73-16.7,3.88-23.58,8.85h0Z"/>
        <path class="cls-3" d="m56,129.53c5.01-3.01,10.57-5.22,16.37-6.12,4.37-.49,8.76-.23,13.13-.72,1.45-.12,2.9-.29,4.34-.55-2.84.7-5.76,1.01-8.68,1.23-2.9.26-5.84.12-8.72.54-5.75.84-11.28,2.99-16.44,5.61h0Z"/>
        <path class="cls-3" d="m60,129.07c2.63-1.9,5.85-2.82,8.98-3.5,2.29-.5,4.86-.76,7.21-.91.81-.02,1.61-.05,2.42-.05-.8.12-1.6.2-2.4.3-5.5.78-11.24,1.56-16.21,4.16h0Z"/>
      </g>
      <g>
        <path class="cls-3" d="m51.03,125.75c6.39-7.36,16.35-10.89,25.92-11.11,16.05-.29,32.07-1.91,47.84-4.9-15.69,3.45-31.77,5.16-47.83,5.36-9.5.2-19.38,3.53-25.93,10.65h0Z"/>
        <path class="cls-3" d="m54.94,123.14c7.03-5.57,16.28-7.35,25.04-7.76,8.56-.56,18-1.07,26.49-1.93,5.87-.59,11.73-1.35,17.49-2.64-5.72,1.5-11.58,2.37-17.45,3.04-8.48.96-17.94,1.51-26.5,2.01-8.74.38-17.88,1.99-25.07,7.29h0Z"/>
      </g>
      <g>
        <path class="cls-3" d="m46.52,130.97c-1.6-6.76-4.43-15.45-10.33-19.6-6.18-4.38-13.15-7.53-20.03-10.64,5.32,2.03,10.55,4.36,15.51,7.17,2.47,1.43,4.97,2.91,7.03,4.93,4.55,4.94,6.64,11.67,7.83,18.15h0Z"/>
        <path class="cls-3" d="m45.1,130.73c-1.29-6.92-3.86-14.99-10.52-18.44-5.51-3.29-13.66-7.61-19.37-10.74,3.34,1.58,6.64,3.24,9.92,4.94,3.28,1.71,6.52,3.49,9.71,5.35,1.61.91,3.18,2.03,4.37,3.47,3.58,4.31,5.2,9.95,5.88,15.41h0Z"/>
        <path class="cls-3" d="m43.2,130.85c-.67-5.3-2.23-10.87-6.01-14.81-3.99-3.68-9.01-6.08-13.75-8.67-3.22-1.69-6.49-3.29-9.77-4.87,7.12,3,14.2,6.3,20.65,10.59,1.08.78,2.29,1.65,3.2,2.62,3.82,4.02,5.3,9.75,5.68,15.14h0Z"/>
        <path class="cls-3" d="m41.42,130.26c.31-5.12-2.33-10.03-6.16-13.3-4.61-3.63-9.73-6.6-14.89-9.37-1.38-.74-2.79-1.44-4.21-2.12,2.93,1.15,5.76,2.55,8.52,4.04,2.77,1.5,5.45,3.16,8.06,4.93,2.59,1.77,5.07,3.92,6.64,6.71,1.59,2.74,2.44,5.97,2.04,9.1h0Z"/>
        <path class="cls-3" d="m39.88,129.67c-.67-2.95-2.36-5.58-4.24-7.91-1.84-2.29-4.22-4.4-6.56-6.19-.58-.48-1.5-1.04-2.12-1.48-.62-.44-1.51-1.05-2.17-1.41-5.15-3.17-10.8-5.47-16.46-7.57,3.32,1.02,6.58,2.19,9.78,3.55,6.67,3.05,13.25,7,17.81,12.87,1.84,2.38,3.47,5.12,3.96,8.13h0Z"/>
        <path class="cls-3" d="m40.12,126.94c-3.17-7.32-9.56-12.82-16.48-16.51-1.56-.86-3.36-1.64-4.97-2.38,1.66.59,3.52,1.29,5.11,2.09,7.1,3.44,13.69,9.18,16.33,16.8h0Z"/>
        <path class="cls-3" d="m37.75,127.41c-6.44-9.15-16.08-15.63-26.45-19.57,0,0,1.99.66,1.99.66,9.69,3.32,19.1,10.07,24.46,18.9h0Z"/>
        <path class="cls-3" d="m34.43,125.75c-4.81-5.37-10.63-9.71-16.72-13.52,6.45,3.19,12.44,7.69,16.72,13.52h0Z"/>
        <path class="cls-3" d="m45.81,121.96c-.42-4.33-3.33-7.9-6.37-10.8-.28-.24-1.83-1.52-2.14-1.78l-1.83-1.28c-4.91-3.4-10.53-5.64-16.1-7.72,1.43.44,2.85.91,4.29,1.36,1.2.4,2.99,1.18,4.19,1.64,1.2.48,2.88,1.39,4.06,1.95.66.39,2.29,1.34,2.92,1.71.64.39,2.13,1.51,2.77,1.95.32.28,1.86,1.57,2.15,1.83.91.91,1.9,1.89,2.67,2.92,1.81,2.34,3.34,5.2,3.39,8.22h0Z"/>
      </g>
      <path class="cls-15" d="m127.89,110.82l2.52,2.53-25.79,6.01s24.83-6.03,23.28-8.54Z"/>
      <path class="cls-15" d="m60.44,121.39c-7.89,3.77-12.65,8.21-12.65,8.21l-1.29-4.02c.19,1.71-.25,2.45-.96,2.66-.77.23-1.54-.36-1.66-1.16-.69-4.82-5.24-16.57-32.19-24.4,0,0,3.84,2.24,6.98,5.36,0,0,21.84,6.06,22.51,18.55.44,4.68-17.67-9.19-17.67-9.19l15.72,12.69c1.48,2.69,7.67,2.11,7.67,2.11,0,0,0-.01,0-.02,5.39-.18,25.03-5.3,25.03-5.3-16.6,1.18-11.49-5.51-11.49-5.51Z"/>
      <g>
        <g>
          <polygon class="cls-20" points="92.99 173.59 99.64 186.27 120.76 181.98 114.26 169.07 92.99 173.59"/>
          <polygon class="cls-18" points="98.77 172.36 92.99 173.59 95.09 177.61 134.17 192.79 139.64 188.24 98.77 172.36"/>
          <polygon class="cls-10" points="93.16 173.92 94.61 176.69 134.24 192.09 134.44 189.96 93.16 173.92"/>
          <polygon class="cls-20" points="145.24 162.49 151.53 175.72 129.57 180.19 123.12 167.19 145.24 162.49"/>
          <polygon class="cls-18" points="139.11 163.79 145.24 162.49 147.23 166.68 128.41 193.91 119.9 192.13 139.11 163.79"/>
          <polygon class="cls-10" points="145.4 162.84 146.77 165.72 127.72 193.36 125.63 191.69 145.4 162.84"/>
          <polygon class="cls-20" points="163.78 201.52 157.77 188.86 135.97 193.1 142.13 205.54 163.78 201.52"/>
          <polygon class="cls-18" points="157.79 202.63 163.78 201.52 161.91 197.57 122.56 182.28 117.22 186.87 157.79 202.63"/>
          <polygon class="cls-10" points="163.63 201.19 162.34 198.47 122.51 183 122.33 185.14 163.63 201.19"/>
          <polygon class="cls-20" points="112.6 211.03 106.24 198.87 127.22 194.8 133.45 207.15 112.6 211.03"/>
          <polygon class="cls-18" points="118.27 209.97 112.6 211.03 110.62 207.23 128.36 181.1 137.02 182.9 118.27 209.97"/>
          <polygon class="cls-10" points="112.44 210.71 111.07 208.11 129.07 181.67 131.17 183.37 112.44 210.71"/>
          <polygon class="cls-18" points="151.53 175.72 129.61 180.18 123.17 167.18 114.13 169.1 120.63 182 99.64 186.27 106.09 198.6 126.95 194.54 133.32 207.18 142.18 205.53 135.87 192.8 157.63 188.57 151.53 175.72"/>
          <polygon class="cls-10" points="152.79 178.37 128.99 183.17 121.24 167.58 116.04 168.69 123.83 184.21 100.97 188.82 104.78 196.1 127.56 191.63 135.19 206.83 140.29 205.88 132.7 190.62 156.39 185.96 152.79 178.37"/>
        </g>
        <g>
          <path class="cls-18" d="m83.31,151.15c-1.57.23-2.37.32-3.98.4.6,1.22.9,1.83,1.5,3.05,1.81-.08,2.7-.17,4.46-.44.18.37.28.56.46.93-2.29.34-3.45.44-5.82.46-1.66-3.38-2.49-5.06-4.13-8.41,2.24-.07,3.34-.19,5.51-.55.18.37.27.55.46.92-1.65.27-2.49.37-4.18.47.52,1.06.79,1.59,1.31,2.66,1.61-.09,2.4-.17,3.98-.41.18.36.27.55.45.91Z"/>
          <path class="cls-18" d="m87.45,154.81c-1.71-3.45-2.57-5.16-4.26-8.57.56-.12.84-.18,1.39-.31,2.13,1.43,3.19,2.13,5.34,3.52,1.24.81,2.27,1.55,3.19,2.3,0,0,.01-.01.02-.02-.7-1.13-1.26-2.18-1.94-3.53-.73-1.46-1.09-2.18-1.82-3.63.47-.16.71-.24,1.18-.4,1.74,3.47,2.62,5.21,4.39,8.73-.52.17-.77.25-1.29.4-2.15-1.4-3.22-2.1-5.35-3.53-1.17-.78-2.32-1.61-3.28-2.42-.02,0-.02.01-.04.02.61,1.06,1.15,2.09,1.87,3.51.73,1.47,1.1,2.21,1.83,3.68-.49.1-.73.15-1.23.24Z"/>
          <path class="cls-18" d="m104.53,148.84c-.49.42-1.47,1.19-2.82,1.71-1.5.59-2.92.71-4.29.23-1.22-.42-2.34-1.42-3.02-2.78-1.31-2.61-.28-5.23,2.99-6.62,1.13-.48,2.13-.64,2.65-.64.07.43.1.64.17,1.07-.63.01-1.38.12-2.37.54-2.38,1-3.25,2.9-2.14,5.11,1.13,2.23,3.3,3.02,5.61,2.11.84-.33,1.36-.67,1.59-.92-.54-1.07-.82-1.6-1.36-2.66-.81.33-1.21.5-2.01.82-.19-.37-.28-.55-.47-.92,1.3-.53,1.95-.8,3.26-1.34.88,1.72,1.32,2.58,2.2,4.3Z"/>
          <path class="cls-18" d="m102.14,139.46c.52-.22.77-.33,1.29-.56,1.64,3.19,2.46,4.79,4.12,8.02,1.75-.71,2.63-1.06,4.44-1.75.2.4.31.59.51.99-2.35.89-3.5,1.36-5.76,2.27-1.85-3.61-2.77-5.41-4.6-8.97Z"/>
          <path class="cls-18" d="m110.67,135.94c1.89,3.64,2.84,5.47,4.75,9.15-.56.2-.84.3-1.39.5-1.9-3.67-2.85-5.5-4.73-9.13.54-.21.82-.32,1.37-.53Z"/>
          <path class="cls-18" d="m116.95,142.87c.81.12,1.9.09,2.92-.21,1.51-.45,2.08-1.33,1.58-2.27-.46-.87-1.37-1.23-3.14-1.23-2.11,0-3.64-.36-4.31-1.65-.74-1.43.09-3,2.3-3.68,1.16-.36,2.14-.37,2.78-.28.04.44.06.65.1,1.09-.47-.06-1.39-.12-2.41.19-1.55.47-1.72,1.43-1.39,2.05.45.86,1.34,1.05,3.17,1.08,2.25.04,3.69.56,4.41,1.94.76,1.45.02,2.99-2.67,3.78-1.1.32-2.41.44-3.17.31-.06-.45-.1-.67-.16-1.12Z"/>
          <path class="cls-18" d="m123.07,132.27c.83,1.57,1.24,2.35,2.08,3.93,2.4-.45,3.65-.63,6.25-.85-.85-1.6-1.28-2.39-2.12-3.98.7-.06,1.05-.09,1.77-.14,2.04,3.81,3.06,5.73,5.13,9.59-.73.03-1.09.05-1.8.1-.96-1.8-1.44-2.7-2.4-4.49-2.61.21-3.86.39-6.26.83.93,1.77,1.4,2.65,2.34,4.43-.65.11-.97.17-1.6.3-1.99-3.78-2.98-5.65-4.95-9.38.62-.14.94-.21,1.57-.33Z"/>
          <path class="cls-18" d="m86.35,159.44c.53-.05.8-.09,1.33-.16,1.53,3.08,2.29,4.62,3.83,7.73,1.78-.2,2.66-.34,4.41-.69.19.38.29.57.48.95-2.28.45-3.43.62-5.78.81-1.72-3.48-2.58-5.21-4.28-8.65Z"/>
          <path class="cls-18" d="m101.04,161.37c-1.56.49-2.35.72-3.92,1.13.64,1.27.96,1.91,1.6,3.19,1.76-.44,2.64-.69,4.39-1.23.2.39.29.58.49.97-2.28.7-3.42,1.02-5.72,1.53-1.77-3.54-2.65-5.3-4.4-8.8,2.17-.54,3.24-.87,5.4-1.58.19.38.29.58.48.96-1.64.54-2.46.79-4.11,1.23.56,1.11.84,1.67,1.39,2.78,1.57-.41,2.35-.64,3.91-1.14.19.38.29.57.48.95Z"/>
          <path class="cls-18" d="m104.41,163.53c.75.13,1.74.11,2.65-.2,1.34-.47,1.81-1.39,1.34-2.3-.43-.85-1.24-1.15-2.83-1.11-1.89.05-3.31-.35-3.94-1.61-.7-1.39.06-2.86,2.01-3.6,1.03-.39,1.88-.46,2.45-.41.05.44.07.65.12,1.09-.41-.04-1.22-.04-2.13.3-1.37.51-1.52,1.42-1.21,2.03.42.84,1.24,1.04,2.88,1.01,2.01-.03,3.27.37,3.95,1.71.72,1.4.16,3.06-2.25,3.89-.98.34-2.18.43-2.88.29-.06-.43-.1-.65-.16-1.08Z"/>
          <path class="cls-18" d="m111.88,160.89c.77.11,1.78.06,2.72-.28,1.39-.5,1.88-1.44,1.4-2.37-.44-.86-1.29-1.17-2.93-1.11-1.96.08-3.4-.28-4.05-1.56-.72-1.42.05-2.98,2.06-3.75,1.06-.41,1.96-.49,2.55-.43.05.44.07.66.12,1.11-.43-.04-1.27-.04-2.21.32-1.42.54-1.57,1.49-1.25,2.11.44.85,1.27,1.03,2.97.98,2.08-.06,3.4.37,4.1,1.73.74,1.43.13,3.09-2.35,3.98-1.01.36-2.24.5-2.96.38-.07-.45-.1-.67-.17-1.11Z"/>
          <path class="cls-18" d="m127.86,151.95c1.71,3.27.09,5.56-2.83,6.39-3.02.86-6-.35-7.45-3.16-1.52-2.94-.42-5.64,2.58-6.58,3.07-.96,6.23.53,7.7,3.34Zm-8.79,2.69c1.03,1.99,3.21,3.35,5.53,2.68,2.34-.67,2.79-2.78,1.67-4.93-.99-1.88-3.25-3.54-5.66-2.79-2.4.74-2.59,2.99-1.53,5.03Z"/>
          <path class="cls-18" d="m132.47,156.39c-2.02-3.84-3.02-5.74-5.02-9.53.69-.14,1.03-.21,1.74-.34,2.61,1.63,3.95,2.48,6.68,4.26,1.58,1.03,2.91,2,4.1,2.96.01,0,.02-.01.03-.02-.86-1.29-1.53-2.47-2.33-3.98-.86-1.62-1.29-2.43-2.15-4.05.66-.05.99-.08,1.66-.11,2.07,3.87,3.11,5.82,5.2,9.74-.73.02-1.09.04-1.81.08-2.8-1.88-4.16-2.78-6.83-4.5-1.47-.95-2.88-1.9-4.05-2.81-.02,0-.03.02-.05.02.73,1.18,1.37,2.32,2.21,3.91.86,1.64,1.3,2.46,2.16,4.1-.62.1-.92.15-1.52.26Z"/>
        </g>
      </g>
      <g>
        <path class="cls-27" d="m42.9,178.62s16.87-6.49,13.64-12.44c-3.04-5.6-12.04-1.52-16.15.1-1.21.48-3.52,2.01-4.21,3.11-2.08,3.3-1.78,8.82,6.72,9.23Z"/>
        <g>
          <path class="cls-8" d="m54.02,165.65l1.24,3.34c.1.27.01.56-.21.73-1.14.87-4.53,3.23-5.82,1.67-1.51-1.84-1.97-5.73,4.13-6.17.28-.02.56.16.66.42Z"/>
          <path class="cls-8" d="m48.47,167.72s2.21,1.48,1.32,4.08c0,0-.73-.08-1.3-1.73-.57-1.65-.02-2.35-.02-2.35Z"/>
        </g>
        <path class="cls-27" d="m45.05,194.25s8.47-1.64,13.92-4.11c6.4-2.89,10.18,2.35,9.29,4.56-.52,1.29-3.7,3.21-5.2,4.28-3.76,2.68-13.25,10-18.22,3.24-1.05-1.42-1.52-6.11.21-7.97Z"/>
        <g>
          <path class="cls-8" d="m65.77,191.47l1.54,3.31c.12.26.06.57-.16.77-1.09.98-4.37,3.67-5.81,2.18-1.7-1.76-2.48-5.7,3.72-6.64.29-.04.59.11.71.38Z"/>
          <path class="cls-8" d="m60.26,194.03s2.38,1.33,1.68,4.07c0,0-.75-.03-1.46-1.66-.71-1.64-.21-2.4-.21-2.4Z"/>
        </g>
        <path class="cls-27" d="m43.3,178.41l3.41,4.01s14.54-3.31,16.95,1c1.01,1.81.65,4.16-.02,4.9-2.96,3.25-12.44,5.76-15.08,6.41-.47.12-.94.13-1.42.03-2.53-.53-10.68-2.72-9.58-8.64.36-1.92,2.34-7.6,5.75-7.71Z"/>
        <g>
          <path class="cls-8" d="m62.48,183.76l.97,3.52c.08.28-.04.58-.28.73-1.24.78-4.91,2.9-6.09,1.19-1.38-2.01-1.51-6.03,4.76-5.94.29,0,.56.21.64.49Z"/>
          <path class="cls-8" d="m56.62,185.39s2.13,1.71.98,4.29c0,0-.74-.15-1.17-1.88-.43-1.73.19-2.41.19-2.41Z"/>
        </g>
        <path class="cls-27" d="m46.58,199.98c2.08-1.19,11.07,2.57,11.07,2.57,0,0,9.46-5.34,12.03-3.78,5.3,3.21-3.64,9.07-7.31,10.92-1.03.52-2.12.89-3.25,1.07-6.67,1.07-16.9-8.28-12.55-10.78Z"/>
        <g>
          <path class="cls-8" d="m68.66,199.96l1.24,1.92c.1.15.07.39-.07.58-.71.98-2.87,3.77-3.95,3.11-1.27-.78-2.01-3.35,2.27-5.69.2-.11.41-.08.51.08Z"/>
          <path class="cls-8" d="m64.94,203.25s1.73.3,1.37,2.41c0,0-.53.18-1.1-.78-.58-.96-.26-1.64-.26-1.64Z"/>
        </g>
        <path class="cls-17" d="m45.37,202.87c2.38,4.94,9.15,2.32,12.53-.12.53-.41,1.08-.79,1.59-1.21-1.21.56-2.36,1.2-3.56,1.72-3.26,1.44-8.03,3.1-10.56-.39h0Z"/>
        <path class="cls-17" d="m45.74,194.42c1.78.85,3.71.65,5.58.17,4.05-1.08,7.85-2.99,11.34-5.28-3.86,1.56-7.57,3.35-11.52,4.61-1.79.62-3.57.93-5.39.49h0Z"/>
        <g>
          <path class="cls-28" d="m43.3,178.41l3.41,4.01s-5.54-2.79-8.26.91c0,0,1.66-4.77,4.85-4.92Z"/>
          <path class="cls-28" d="m48.86,194.98s-4.74-.29-4.74,5.5c0,0-.86-4.07.93-6.22,0,0,.94.48,2.78.46l1.03.26Z"/>
          <path class="cls-28" d="m54.29,204.73s-3.65,3.5.33,5.47c0,0-4.68-1.53-7.84-5.51,0,0,1.44,1.5,7.51.05Z"/>
        </g>
      </g>
      <g>
        <path class="cls-27" d="m225.9,245.31l-22.28-33.58c-8.76-23.62-15.3-38.31-21.48-45.6-2.9-3.42-6.77-5.89-11.09-7.1l-17.59-4.08-17.8,2.56c-.88.13-1.58.79-1.76,1.66-1.85,9.14,17.66,6.64,17.66,6.64l7.12,3.61-7.88-.79c-.96-.21-1.95-.26-2.92-.14l-18.62,2.29c-1.1.14-2.05.9-2.38,1.96-3.1,9.93,18.98,6.05,18.98,6.05l11.54,4.05-8.9-1.41s-14.93-1-18.65,3.16c-.86.96-.85,2.68-.24,4.19,1.46,3.65,16.59,3.16,16.59,3.16l8.71,3.52-10.87-1.58c-.37-.08-.75-.1-1.12-.07l-10.08.99c-.78.08-1.39.64-1.62,1.39-2.13,7.09,11.37,6.42,11.37,6.42l12.44,7.38s9.14,14.58,18.58,17.43l6.69,17.98,45.6-.08Z"/>
        <g>
          <g>
            <path class="cls-8" d="m132.39,198.47l.07-2.87c0-.23.16-.42.38-.48,1.11-.31,4.35-1.06,4.84.49.58,1.83-.24,4.87-4.93,3.37-.22-.07-.37-.28-.37-.51Z"/>
            <path class="cls-8" d="m137.15,198.59s-1.21-1.77.24-3.44c0,0,.52.28.45,1.68-.07,1.4-.69,1.76-.69,1.76Z"/>
          </g>
          <g>
            <path class="cls-8" d="m128.41,175.28l.09-3.51c0-.28.19-.52.46-.59,1.35-.37,5.32-1.29,5.92.6.71,2.24-.3,5.96-6.03,4.12-.27-.09-.45-.35-.45-.63Z"/>
            <path class="cls-8" d="m134.24,175.42s-1.48-2.16.29-4.21c0,0,.64.34.55,2.05-.09,1.71-.84,2.16-.84,2.16Z"/>
          </g>
          <g>
            <path class="cls-8" d="m130.73,188.61l.1-3.75c0-.3.21-.55.5-.63,1.45-.4,5.69-1.38,6.34.65.76,2.39.59,5.72-6.45,4.41-.29-.05-.49-.37-.48-.67Z"/>
            <path class="cls-8" d="m137.05,188.82s-1.58-2.31.31-4.5c0,0,.68.37.59,2.2-.09,1.83-.9,2.31-.9,2.31Z"/>
          </g>
          <g>
            <path class="cls-8" d="m135.82,161.4l-.31-3.01c0-.28.19-.52.46-.59,1.35-.37,5.73-1.3,6.33.11.92,2.16-.3,5.96-6.03,4.12-.27-.09-.45-.35-.45-.63Z"/>
            <path class="cls-8" d="m141.64,161.55s-1.53-2.03.24-4.08c0,0,.73.25.64,1.96-.09,1.71-.89,2.12-.89,2.12Z"/>
          </g>
        </g>
        <g>
          <path class="cls-17" d="m155.59,169.1c3.78.1,7.52.55,11.21,1.35-3.78-.1-7.52-.55-11.21-1.35h0Z"/>
          <path class="cls-17" d="m153.58,182.21c2.92.03,5.81.41,8.64,1.14-2.93-.03-5.81-.41-8.64-1.14h0Z"/>
          <path class="cls-17" d="m151.35,194.92c3.33.3,6.6.94,9.79,1.94-3.33-.3-6.6-.95-9.79-1.94h0Z"/>
        </g>
        <path class="cls-17" d="m170.98,226.3c2.63,1.25,5.58,1.59,8.42.94-2.64,1.38-6.14.98-8.42-.94h0Z"/>
        <path class="cls-28" d="m179.4,227.23l3.12,18.15-2.22.02-6.62-17.7s1.96.87,5.72-.47Z"/>
        <g>
          <polygon class="cls-28" points="151.56 165.81 158.24 169.23 166.79 170.45 151.56 165.81"/>
          <polygon class="cls-28" points="162.23 183.35 145.87 178.78 155.77 182.23 162.23 183.35"/>
          <polygon class="cls-28" points="161.14 196.86 146.21 191.93 154.7 195.42 161.14 196.86"/>
        </g>
      </g>
      <path class="cls-35" d="m90.06,134.08c4.14,4.35,30.68-9.13,38.74,3.4s13.27,20.38,16.77,16.35c3.5-4.03-7.75-34.48-14.75-35.77-5.2-.96-49.4,6.95-40.76,16.03Z"/>
    </g>
  </g>
</svg>