<?xml version="1.0" encoding="UTF-8"?>
<svg id="Layer_2" data-name="Layer 2" xmlns="http://www.w3.org/2000/svg" xmlns:xlink="http://www.w3.org/1999/xlink" viewBox="0 0 428.55 82.34">
  <defs>
    <style>
      .cls-1 {
        fill: #46467f;
      }

      .cls-1, .cls-2, .cls-3, .cls-4, .cls-5, .cls-6, .cls-7, .cls-8 {
        stroke-width: 0px;
      }

      .cls-2 {
        fill: #e6273e;
      }

      .cls-2, .cls-3, .cls-6, .cls-7 {
        fill-rule: evenodd;
      }

      .cls-3 {
        fill: #d02f44;
      }

      .cls-9 {
        fill: #00305c;
        font-size: 46.89px;
      }

      .cls-9, .cls-10 {
        font-family: InriaSerif-Bold, 'Inria Serif';
        font-weight: 700;
      }

      .cls-4, .cls-11 {
        fill: none;
      }

      .cls-11 {
        stroke: #db1f35;
        stroke-linecap: round;
        stroke-miterlimit: 114.29;
        stroke-width: 3px;
      }

      .cls-12 {
        clip-path: url(#clippath-1);
      }

      .cls-13 {
        letter-spacing: 0em;
      }

      .cls-5, .cls-7 {
        fill: #fff;
      }

      .cls-6 {
        fill: url(#linear-gradient);
      }

      .cls-14 {
        clip-path: url(#clippath);
      }

      .cls-10 {
        fill: #9b0003;
        font-size: 24px;
      }

      .cls-8 {
        fill: #0a17a7;
      }

      .cls-15 {
        mask: url(#mask-1);
      }

      .cls-16 {
        mask: url(#mask);
      }
    </style>
    <clipPath id="clippath">
      <path class="cls-4" d="m320.58.34h99.67c4.59,0,8.31,3.67,8.31,8.2v65.6c0,4.53-3.72,8.2-8.31,8.2h-99.67c-4.59,0-8.31-3.67-8.31-8.2V8.54c0-4.53,3.72-8.2,8.31-8.2Z"/>
    </clipPath>
    <mask id="mask" x="312.27" y=".34" width="116.28" height="82" maskUnits="userSpaceOnUse">
      <g id="mask0_503_3486" data-name="mask0 503 3486">
        <path class="cls-5" d="m320.58.34h99.67c4.59,0,8.31,3.67,8.31,8.2v65.6c0,4.53-3.72,8.2-8.31,8.2h-99.67c-4.59,0-8.31-3.67-8.31-8.2V8.54c0-4.53,3.72-8.2,8.31-8.2Z"/>
      </g>
    </mask>
    <linearGradient id="linear-gradient" x1="-471.13" y1="754.88" x2="-471.13" y2="753.92" gradientTransform="translate(13798.07 21573.76) scale(28.57 -28.57)" gradientUnits="userSpaceOnUse">
      <stop offset="0" stop-color="#fff"/>
      <stop offset="1" stop-color="#f0f0f0"/>
    </linearGradient>
    <clipPath id="clippath-1">
      <path class="cls-4" d="m8.11,0h97.33c4.48,0,8.11,3.69,8.11,8.23v65.87c0,4.55-3.63,8.23-8.11,8.23H8.11c-4.48,0-8.11-3.69-8.11-8.23V8.23C0,3.69,3.63,0,8.11,0Z"/>
    </clipPath>
    <mask id="mask-1" x="-17.06" y="-9.73" width="145.77" height="103.09" maskUnits="userSpaceOnUse">
      <g id="mask0_503_2952" data-name="mask0 503 2952">
        <path class="cls-5" d="m8.11,0h97.33c4.48,0,8.11,3.69,8.11,8.23v65.87c0,4.55-3.63,8.23-8.11,8.23H8.11c-4.48,0-8.11-3.69-8.11-8.23V8.23C0,3.69,3.63,0,8.11,0Z"/>
      </g>
    </mask>
  </defs>
  <g id="Layer_1-2" data-name="Layer 1">
    <g class="cls-14">
      <g>
        <path class="cls-5" d="m320.58.34h99.67c4.59,0,8.31,3.67,8.31,8.2v65.6c0,4.53-3.72,8.2-8.31,8.2h-99.67c-4.59,0-8.31-3.67-8.31-8.2V8.54c0-4.53,3.72-8.2,8.31-8.2Z"/>
        <g class="cls-16">
          <g>
            <path class="cls-3" d="m428.55.34h-116.28v5.47h116.28V.34Zm0,10.93h-116.28v5.47h116.28v-5.47Zm-116.28,10.93h116.28v5.47h-116.28v-5.47Zm116.28,10.93h-116.28v5.47h116.28v-5.47Zm-116.28,10.93h116.28v5.47h-116.28v-5.47Zm116.28,10.93h-116.28v5.47h116.28v-5.47Zm-116.28,10.93h116.28v5.47h-116.28v-5.47Zm116.28,10.93h-116.28v5.47h116.28v-5.47Z"/>
            <rect class="cls-1" x="312.27" y=".34" width="49.83" height="38.27"/>
            <path class="cls-6" d="m323.35,8.54c0,1.51-1.24,2.73-2.77,2.73s-2.77-1.22-2.77-2.73,1.24-2.73,2.77-2.73,2.77,1.22,2.77,2.73Zm11.07,0c0,1.51-1.24,2.73-2.77,2.73s-2.77-1.22-2.77-2.73,1.24-2.73,2.77-2.73,2.77,1.22,2.77,2.73Zm8.31,2.73c1.53,0,2.77-1.22,2.77-2.73s-1.24-2.73-2.77-2.73-2.77,1.22-2.77,2.73,1.24,2.73,2.77,2.73Zm13.84-2.73c0,1.51-1.24,2.73-2.77,2.73s-2.77-1.22-2.77-2.73,1.24-2.73,2.77-2.73,2.77,1.22,2.77,2.73Zm-30.45,8.2c1.53,0,2.77-1.22,2.77-2.73s-1.24-2.73-2.77-2.73-2.77,1.22-2.77,2.73,1.24,2.73,2.77,2.73Zm13.84-2.73c0,1.51-1.24,2.73-2.77,2.73s-2.77-1.22-2.77-2.73,1.24-2.73,2.77-2.73,2.77,1.22,2.77,2.73Zm8.31,2.73c1.53,0,2.77-1.22,2.77-2.73s-1.24-2.73-2.77-2.73-2.77,1.22-2.77,2.73,1.24,2.73,2.77,2.73Zm8.31,2.73c0,1.51-1.24,2.73-2.77,2.73s-2.77-1.22-2.77-2.73,1.24-2.73,2.77-2.73,2.77,1.22,2.77,2.73Zm-13.84,2.73c1.53,0,2.77-1.22,2.77-2.73s-1.24-2.73-2.77-2.73-2.77,1.22-2.77,2.73,1.24,2.73,2.77,2.73Zm-8.31-2.73c0,1.51-1.24,2.73-2.77,2.73s-2.77-1.22-2.77-2.73,1.24-2.73,2.77-2.73,2.77,1.22,2.77,2.73Zm-13.84,2.73c1.53,0,2.77-1.22,2.77-2.73s-1.24-2.73-2.77-2.73-2.77,1.22-2.77,2.73,1.24,2.73,2.77,2.73Zm8.31,2.73c0,1.51-1.24,2.73-2.77,2.73s-2.77-1.22-2.77-2.73,1.24-2.73,2.77-2.73,2.77,1.22,2.77,2.73Zm8.31,2.73c1.53,0,2.77-1.22,2.77-2.73s-1.24-2.73-2.77-2.73-2.77,1.22-2.77,2.73,1.24,2.73,2.77,2.73Zm13.84-2.73c0,1.51-1.24,2.73-2.77,2.73s-2.77-1.22-2.77-2.73,1.24-2.73,2.77-2.73,2.77,1.22,2.77,2.73Zm2.77,8.2c1.53,0,2.77-1.22,2.77-2.73s-1.24-2.73-2.77-2.73-2.77,1.22-2.77,2.73,1.24,2.73,2.77,2.73Zm-8.31-2.73c0,1.51-1.24,2.73-2.77,2.73s-2.77-1.22-2.77-2.73,1.24-2.73,2.77-2.73,2.77,1.22,2.77,2.73Zm-13.84,2.73c1.53,0,2.77-1.22,2.77-2.73s-1.24-2.73-2.77-2.73-2.77,1.22-2.77,2.73,1.24,2.73,2.77,2.73Zm-8.31-2.73c0,1.51-1.24,2.73-2.77,2.73s-2.77-1.22-2.77-2.73,1.24-2.73,2.77-2.73,2.77,1.22,2.77,2.73Z"/>
          </g>
        </g>
      </g>
    </g>
    <g class="cls-12">
      <g>
        <path class="cls-5" d="m8.11,0h97.33c4.48,0,8.11,3.69,8.11,8.23v65.87c0,4.55-3.63,8.23-8.11,8.23H8.11c-4.48,0-8.11-3.69-8.11-8.23V8.23C0,3.69,3.63,0,8.11,0Z"/>
        <g class="cls-15">
          <g>
            <rect class="cls-8" width="113.55" height="82.34"/>
            <path class="cls-7" d="m-5.2-7.89L43.26,25.29V-5.49h27.04v30.78L118.75-7.89l6.05,9.1-38.31,26.23h27.06v27.45h-27.06l38.31,26.24-6.05,9.1-48.46-33.18v30.78h-27.04v-30.78L-5.2,90.23l-6.05-9.1,38.31-26.24H0v-27.45h27.06L-11.25,1.21-5.2-7.89Z"/>
            <path class="cls-11" d="m75.71,26.07L127.07-8.23"/>
            <path class="cls-11" d="m81.16,56.39l46.04,31.51"/>
            <path class="cls-11" d="m32.47,25.98L-15.56-6.88"/>
            <path class="cls-11" d="m37.68,56.01L-15.56,91.85"/>
            <path class="cls-2" d="m0,49.4h48.67v32.94h16.22v-32.94h48.67v-16.47h-48.67V0h-16.22v32.94H0v16.47Z"/>
          </g>
        </g>
      </g>
    </g>
    <text class="cls-9" transform="translate(132.17 41.54)"><tspan x="0" y="0">English</tspan></text>
    <text class="cls-10" transform="translate(131.45 74.86)"><tspan x="0" y="0">school </tspan><tspan class="cls-13" x="77.95" y="0">f</tspan><tspan x="86.42" y="0">or kids</tspan></text>
  </g>
</svg>