<?xml version="1.0" encoding="UTF-8"?>
<svg xmlns="http://www.w3.org/2000/svg" xmlns:xlink="http://www.w3.org/1999/xlink" viewBox="0 0 388.86 223.65">
  <defs>
    <style>
      .cls-1 {
        stroke-width: 2.77px;
      }

      .cls-1, .cls-2, .cls-3, .cls-4, .cls-5 {
        stroke-linecap: round;
        stroke-linejoin: round;
      }

      .cls-1, .cls-6, .cls-7 {
        stroke: #fff;
      }

      .cls-1, .cls-8, .cls-9 {
        fill: #222221;
      }

      .cls-10, .cls-11, .cls-12, .cls-13, .cls-14, .cls-15 {
        mix-blend-mode: multiply;
      }

      .cls-10, .cls-12 {
        opacity: .4;
      }

      .cls-16, .cls-17, .cls-18, .cls-19, .cls-20, .cls-6, .cls-8, .cls-21, .cls-7, .cls-22, .cls-23, .cls-9, .cls-24, .cls-25, .cls-26 {
        stroke-miterlimit: 10;
      }

      .cls-16, .cls-17, .cls-18, .cls-19, .cls-8, .cls-21, .cls-22, .cls-9, .cls-24, .cls-25, .cls-26 {
        stroke: #222221;
      }

      .cls-16, .cls-17, .cls-19, .cls-20, .cls-27, .cls-4, .cls-6, .cls-7, .cls-22, .cls-23, .cls-25 {
        fill: none;
      }

      .cls-16, .cls-21 {
        stroke-width: 1.18px;
      }

      .cls-2 {
        stroke-width: .63px;
      }

      .cls-2, .cls-18, .cls-28, .cls-21, .cls-5, .cls-24, .cls-26 {
        fill: #fff;
      }

      .cls-2, .cls-3, .cls-4, .cls-5 {
        stroke: #000;
      }

      .cls-17 {
        stroke-dasharray: 0 0 1.07 1.07;
        stroke-width: .59px;
      }

      .cls-18, .cls-19, .cls-9 {
        stroke-width: .86px;
      }

      .cls-29, .cls-30, .cls-27, .cls-12, .cls-13, .cls-31, .cls-28, .cls-32, .cls-14, .cls-33, .cls-34 {
        stroke-width: 0px;
      }

      .cls-29, .cls-35 {
        fill: #3c62bb;
      }

      .cls-11, .cls-36 {
        opacity: .2;
      }

      .cls-37 {
        clip-path: url(#clippath-2);
      }

      .cls-38 {
        isolation: isolate;
      }

      .cls-20 {
        stroke-width: 40px;
      }

      .cls-20, .cls-23 {
        stroke: #e54d5d;
      }

      .cls-12, .cls-31, .cls-14, .cls-34 {
        fill: #9cb6fb;
      }

      .cls-13 {
        opacity: .3;
      }

      .cls-13, .cls-32 {
        fill: #e54d5d;
      }

      .cls-39 {
        clip-path: url(#clippath-1);
      }

      .cls-6 {
        stroke-width: 60px;
      }

      .cls-7 {
        stroke-width: 20.83px;
      }

      .cls-5 {
        stroke-width: .92px;
      }

      .cls-23 {
        stroke-width: 11.9px;
      }

      .cls-40 {
        clip-path: url(#clippath);
      }

      .cls-33 {
        fill: #202438;
      }

      .cls-25, .cls-26 {
        stroke-width: 1.06px;
      }

      .cls-34 {
        opacity: .35;
      }
    </style>
    <clipPath id="clippath">
      <path class="cls-27" d="m209.91,103.46h80.5v93.15c0,11.62-9.43,21.05-21.05,21.05h-59.46v-114.2h0Z"/>
    </clipPath>
    <clipPath id="clippath-1">
      <path class="cls-29" d="m153.72,95.43c-18.96-12.26-37.92,12.6-56.88-.37.18-12.24.36-24.48.54-36.72,18.96,12.26,37.92-12.6,56.88.37-.18,12.24-.36,24.48-.54,36.72Z"/>
    </clipPath>
    <clipPath id="clippath-2">
      <circle class="cls-27" cx="306.16" cy="170.99" r="29.57" transform="translate(-43.33 142.23) rotate(-24.48)"/>
    </clipPath>
  </defs>
  <g class="cls-38">
    <g id="Layer_2" data-name="Layer 2">
      <g id="OBJECTS">
        <g>
          <path class="cls-34" d="m388.56,166.04c1.76-17.78-4.5-35.61-14.05-50.48-9.54-14.86-22.22-27.21-34.77-39.42-8.83-8.59-17.78-17.26-28.31-23.44-10.53-6.18-22.96-9.73-34.81-7.26-19.72,4.12-34.17,23.75-54.07,26.8-14.02,2.15-27.89-4.43-39.93-12.2-12.04-7.77-23.53-17.04-37.11-21.25-20.53-6.36-43.21,0-61.1,12.25-17.89,12.25-31.73,29.82-44.53,47.68-14.05,19.61-27.62,41.03-30.13,65.35-2.06,19.98,5.79,42.18,21.23,53.06h325.35c16.95-11.57,30.16-30.15,32.23-51.11Z"/>
          <path class="cls-34" d="m218.96,64.87c3.88.14,7.91-.41,11.2-2.48s5.65-5.89,5.19-9.74c-.49-4.09-3.99-7.31-7.87-8.7-3.88-1.39-8.11-1.31-12.23-1.21-6.52.16-26.08-2.95-21.59,9.11,3.11,8.36,17.48,12.68,25.3,13.03Z"/>
        </g>
        <g class="cls-36">
          <circle class="cls-17" cx="83.63" cy="68.38" r="20.3"/>
          <circle class="cls-17" cx="281.25" cy="72.02" r="22.45" transform="translate(.3 145.21) rotate(-28.97)"/>
          <circle class="cls-17" cx="26.64" cy="147.85" r="26.34"/>
          <circle class="cls-17" cx="153.73" cy="134.39" r="21.67"/>
          <circle class="cls-17" cx="192.83" cy="70.95" r="21.67" transform="translate(-12.54 77.23) rotate(-21.95)"/>
          <circle class="cls-17" cx="330.8" cy="110.38" r="21.67" transform="translate(-11.26 178.26) rotate(-29.68)"/>
          <circle class="cls-17" cx="352.76" cy="165.89" r="25.69" transform="translate(73.95 438.33) rotate(-69.52)"/>
        </g>
        <line class="cls-5" x1="16.92" y1="217.15" x2="370.46" y2="217.15"/>
        <g>
          <g id="UMZ4IF">
            <path class="cls-32" d="m133.99,4.48c.25-.34.51-.72.81-1.08,1.13-1.37,2.5-2.36,4.26-2.73,2.14-.45,4.08.06,5.8,1.37,1.89,1.44,2.93,3.4,3.23,5.74.31,2.34-.25,4.52-1.29,6.6-1.03,2.05-2.46,3.81-4.1,5.4-2.09,2.03-4.45,3.7-6.95,5.18-.55.33-1.11.64-1.67.95-.06.04-.18.04-.24,0-2.88-1.57-5.6-3.36-8.03-5.58-1.75-1.6-3.28-3.37-4.43-5.46-.82-1.49-1.41-3.06-1.56-4.75-.31-3.41.72-6.28,3.57-8.3,2.88-2.05,6.54-1.68,9.06.85.56.56,1.03,1.2,1.54,1.81Z"/>
          </g>
          <g id="UMZ4IF-2" data-name="UMZ4IF" class="cls-15">
            <path class="cls-32" d="m125.82,20.34c2.43,2.22,5.16,4.01,8.03,5.58.06.03.18.03.24,0,.56-.31,1.12-.62,1.67-.95,2.5-1.48,4.85-3.15,6.95-5.18,1.64-1.59,3.07-3.34,4.1-5.4,1.04-2.08,1.6-4.26,1.29-6.6,0-.02,0-.04-.01-.06-6.88,5.8-14.69,10.16-23.29,11.63.33.34.67.66,1.02.99Z"/>
          </g>
          <g id="UMZ4IF-3" data-name="UMZ4IF">
            <path class="cls-4" d="m133.99,4.48c.25-.34.51-.72.81-1.08,1.13-1.37,2.5-2.36,4.26-2.73,2.14-.45,4.08.06,5.8,1.37,1.89,1.44,2.93,3.4,3.23,5.74.31,2.34-.25,4.52-1.29,6.6-1.03,2.05-2.46,3.81-4.1,5.4-2.09,2.03-4.45,3.7-6.95,5.18-.55.33-1.11.64-1.67.95-.06.04-.18.04-.24,0-2.88-1.57-5.6-3.36-8.03-5.58-1.75-1.6-3.28-3.37-4.43-5.46-.82-1.49-1.41-3.06-1.56-4.75-.31-3.41.72-6.28,3.57-8.3,2.88-2.05,6.54-1.68,9.06.85.56.56,1.03,1.2,1.54,1.81Z"/>
          </g>
        </g>
        <g>
          <path class="cls-29" d="m90.75,57.02l-2.7.9c-.07.02-.12.07-.14.14l-.9,2.71c-.07.2-.35.2-.42,0l-.9-2.71c-.02-.07-.07-.12-.14-.14l-2.71-.9c-.2-.07-.2-.35,0-.42l2.71-.9c.07-.02.12-.07.14-.14l.91-2.72c.07-.2.35-.2.42,0l.98,2.8c.02.07.08.12.14.14l2.61.84c.2.07.21.35,0,.42Z"/>
          <path class="cls-32" d="m362.09,131.67l-2.7.9c-.07.02-.12.07-.14.14l-.9,2.71c-.07.2-.35.2-.42,0l-.9-2.71c-.02-.07-.07-.12-.14-.14l-2.71-.9c-.2-.07-.2-.35,0-.42l2.71-.9c.07-.02.12-.07.14-.14l.91-2.72c.07-.2.35-.2.42,0l.98,2.8c.02.07.08.12.14.14l2.61.84c.2.07.21.35,0,.42Z"/>
          <path class="cls-29" d="m301.6,58.64l-2.7.9c-.07.02-.12.07-.14.14l-.9,2.71c-.07.2-.35.2-.42,0l-.9-2.71c-.02-.07-.07-.12-.14-.14l-2.71-.9c-.2-.07-.2-.35,0-.42l2.71-.9c.07-.02.12-.07.14-.14l.91-2.72c.07-.2.35-.2.42,0l.98,2.8c.02.07.08.12.14.14l2.61.84c.2.07.21.35,0,.42Z"/>
          <path class="cls-29" d="m235.28,46.75l-2.7.9c-.07.02-.12.07-.14.14l-.9,2.71c-.07.2-.35.2-.42,0l-.9-2.71c-.02-.07-.07-.12-.14-.14l-2.71-.9c-.2-.07-.2-.35,0-.42l2.71-.9c.07-.02.12-.07.14-.14l.91-2.72c.07-.2.35-.2.42,0l.98,2.8c.02.07.08.12.14.14l2.61.84c.2.07.21.35,0,.42Z"/>
          <path class="cls-29" d="m23.51,112.47l-2.7.9c-.07.02-.12.07-.14.14l-.9,2.71c-.07.2-.35.2-.42,0l-.9-2.71c-.02-.07-.07-.12-.14-.14l-2.71-.9c-.2-.07-.2-.35,0-.42l2.71-.9c.07-.02.12-.07.14-.14l.91-2.72c.07-.2.35-.2.42,0l.98,2.8c.02.07.08.12.14.14l2.61.84c.2.07.21.35,0,.42Z"/>
          <path class="cls-32" d="m168.26,52.88l-2.7.9c-.07.02-.12.07-.14.14l-.9,2.71c-.07.2-.35.2-.42,0l-.9-2.71c-.02-.07-.07-.12-.14-.14l-2.71-.9c-.2-.07-.2-.35,0-.42l2.71-.9c.07-.02.12-.07.14-.14l.91-2.72c.07-.2.35-.2.42,0l.98,2.8c.02.07.08.12.14.14l2.61.84c.2.07.21.35,0,.42Z"/>
          <path class="cls-29" d="m28.62,186.78l-2,.67s-.09.05-.1.1l-.67,2.01c-.05.15-.26.15-.31,0l-.67-2.01s-.05-.09-.1-.1l-2.01-.67c-.15-.05-.15-.26,0-.31l2.01-.67s.09-.05.1-.1l.67-2.02c.05-.15.26-.15.31,0l.73,2.07s.06.09.11.1l1.93.62c.15.05.15.26,0,.31Z"/>
          <path class="cls-29" d="m369.88,196.12l-2,.67s-.09.05-.1.1l-.67,2.01c-.05.15-.26.15-.31,0l-.67-2.01s-.05-.09-.1-.1l-2.01-.67c-.15-.05-.15-.26,0-.31l2.01-.67s.09-.05.1-.1l.67-2.02c.05-.15.26-.15.31,0l.73,2.07s.06.09.11.1l1.93.62c.15.05.15.26,0,.31Z"/>
          <path class="cls-32" d="m108.5,46.62c0,1.03-.84,1.87-1.87,1.87s-1.87-.84-1.87-1.87.84-1.87,1.87-1.87,1.87.84,1.87,1.87Z"/>
          <circle class="cls-29" cx="351.52" cy="113.24" r="1.87"/>
          <path class="cls-29" d="m140.76,109.87c0,1.03-.84,1.87-1.87,1.87s-1.87-.84-1.87-1.87.84-1.87,1.87-1.87,1.87.84,1.87,1.87Z"/>
          <circle class="cls-32" cx="375.39" cy="180.46" r="1.87"/>
          <path class="cls-32" d="m22.72,156.59c0,1.03-.84,1.87-1.87,1.87s-1.87-.84-1.87-1.87.84-1.87,1.87-1.87,1.87.84,1.87,1.87Z"/>
        </g>
        <g>
          <path class="cls-31" d="m113.94,123.2h0c-.81,0-1.47-.66-1.47-1.47v-19.52c0-.81.66-1.47,1.47-1.47h0c.81,0,1.47.66,1.47,1.47v19.52c0,.81-.66,1.47-1.47,1.47Z"/>
          <path class="cls-22" d="m113.94,123.2h0c-.81,0-1.47-.66-1.47-1.47v-19.52c0-.81.66-1.47,1.47-1.47h0c.81,0,1.47.66,1.47,1.47v19.52c0,.81-.66,1.47-1.47,1.47Z"/>
          <path class="cls-32" d="m115.82,143.4s-4.3,7.73-13.9.65c-9.6-7.08-14.5-38.47,12.66-27.74,0,0,13.37-9.38,18.75-.06,5.39,9.32.04,40.43-17.51,27.15Z"/>
          <path class="cls-13" d="m96.44,136.29c1.37,3.32,3.3,6.16,5.47,7.76,9.6,7.08,13.9-.65,13.9-.65,14.03,10.62,20.26-7.12,19.45-19.43-.51.44-1.02.87-1.55,1.29-10.32,8.67-24.07,10.83-37.27,11.03Z"/>
          <path class="cls-22" d="m115.82,143.4s-4.3,7.73-13.9.65c-9.6-7.08-14.5-38.47,12.66-27.74,0,0,13.37-9.38,18.75-.06,5.39,9.32.04,40.43-17.51,27.15Z"/>
          <path class="cls-31" d="m114.58,116.31s3.02-11.38,12.67-11.99c0,0-2.36,11.13-12.67,11.99Z"/>
          <path class="cls-22" d="m114.58,116.31s3.02-11.38,12.67-11.99c0,0-2.36,11.13-12.67,11.99Z"/>
          <line class="cls-22" x1="114.58" y1="116.31" x2="127.25" y2="104.32"/>
        </g>
        <g>
          <polygon class="cls-32" points="39.34 214.47 81.28 214.47 81.28 193.7 39.34 196.44 39.34 214.47"/>
          <polygon class="cls-30" points="39.34 190.35 39.34 196.44 81.28 193.7 81.28 190.35 39.34 190.35"/>
          <polygon class="cls-4" points="39.34 214.47 81.28 214.47 81.28 193.7 39.34 196.44 39.34 214.47"/>
          <polygon class="cls-4" points="39.34 190.35 39.34 196.44 81.28 193.7 81.28 190.35 39.34 190.35"/>
          <g>
            <rect class="cls-30" x="42.16" y="196.99" width="1.59" height="15.38" rx=".79" ry=".79"/>
            <rect class="cls-30" x="46.02" y="196.99" width="1.59" height="15.38" rx=".79" ry=".79"/>
            <rect class="cls-30" x="49.88" y="196.99" width="1.59" height="15.38" rx=".79" ry=".79"/>
            <rect class="cls-30" x="53.73" y="196.99" width="1.59" height="15.38" rx=".79" ry=".79"/>
            <rect class="cls-30" x="57.59" y="196.99" width="1.59" height="15.38" rx=".79" ry=".79"/>
            <rect class="cls-30" x="61.44" y="196.99" width="1.59" height="15.38" rx=".79" ry=".79"/>
            <rect class="cls-30" x="65.3" y="196.99" width="1.59" height="15.38" rx=".79" ry=".79"/>
            <rect class="cls-30" x="69.16" y="196.99" width="1.59" height="15.38" rx=".79" ry=".79"/>
            <rect class="cls-30" x="73.01" y="196.99" width="1.59" height="15.38" rx=".79" ry=".79"/>
            <rect class="cls-30" x="76.87" y="196.99" width="1.59" height="15.38" rx=".79" ry=".79"/>
          </g>
          <polygon class="cls-32" points="39.34 189.87 81.28 189.87 81.28 169.1 39.34 171.83 39.34 189.87"/>
          <polygon class="cls-30" points="39.34 165.74 39.34 171.83 81.28 169.1 81.28 165.74 39.34 165.74"/>
          <polygon class="cls-4" points="39.34 189.87 81.28 189.87 81.28 169.1 39.34 171.83 39.34 189.87"/>
          <polygon class="cls-4" points="39.34 165.74 39.34 171.83 81.28 169.1 81.28 165.74 39.34 165.74"/>
          <g>
            <rect class="cls-30" x="42.16" y="172.38" width="1.59" height="15.38" rx=".79" ry=".79"/>
            <rect class="cls-30" x="46.02" y="172.38" width="1.59" height="15.38" rx=".79" ry=".79"/>
            <rect class="cls-30" x="49.88" y="172.38" width="1.59" height="15.38" rx=".79" ry=".79"/>
            <rect class="cls-30" x="53.73" y="172.38" width="1.59" height="15.38" rx=".79" ry=".79"/>
            <rect class="cls-30" x="57.59" y="172.38" width="1.59" height="15.38" rx=".79" ry=".79"/>
            <rect class="cls-30" x="61.44" y="172.38" width="1.59" height="15.38" rx=".79" ry=".79"/>
            <rect class="cls-30" x="65.3" y="172.38" width="1.59" height="15.38" rx=".79" ry=".79"/>
            <rect class="cls-30" x="69.16" y="172.38" width="1.59" height="15.38" rx=".79" ry=".79"/>
            <rect class="cls-30" x="73.01" y="172.38" width="1.59" height="15.38" rx=".79" ry=".79"/>
            <rect class="cls-30" x="76.87" y="172.38" width="1.59" height="15.38" rx=".79" ry=".79"/>
          </g>
          <rect class="cls-32" x="39.34" y="189.87" width="41.92" height="3.02"/>
          <rect class="cls-4" x="39.34" y="189.87" width="41.92" height="3.02"/>
          <polygon class="cls-32" points="39.34 165.54 81.28 165.54 81.28 144.77 39.34 147.51 39.34 165.54"/>
          <g>
            <polygon class="cls-30" points="81.28 84.31 39.34 84.31 39.34 88.17 81.28 86.51 81.28 84.31"/>
            <polygon class="cls-4" points="81.28 84.31 39.34 84.31 39.34 88.17 81.28 86.51 81.28 84.31"/>
            <polygon class="cls-32" points="39.34 88.17 39.34 141.42 81.28 141.42 81.28 86.51 39.34 88.17"/>
            <polygon class="cls-4" points="39.34 88.17 39.34 141.42 81.28 141.42 81.28 86.51 39.34 88.17"/>
            <g>
              <path class="cls-33" d="m45.34,95.86h-3.8v-4.51c0-1.05.85-1.9,1.9-1.9h0c1.05,0,1.9.85,1.9,1.9v4.51Z"/>
              <path class="cls-33" d="m52.42,95.86h-3.8v-4.51c0-1.05.85-1.9,1.9-1.9h0c1.05,0,1.9.85,1.9,1.9v4.51Z"/>
              <path class="cls-33" d="m58.91,95.86h-3.8v-4.51c0-1.05.85-1.9,1.9-1.9h0c1.05,0,1.9.85,1.9,1.9v4.51Z"/>
              <path class="cls-33" d="m65.4,95.86h-3.8v-4.51c0-1.05.85-1.9,1.9-1.9h0c1.05,0,1.9.85,1.9,1.9v4.51Z"/>
              <path class="cls-33" d="m71.88,95.86h-3.8v-4.51c0-1.05.85-1.9,1.9-1.9h0c1.05,0,1.9.85,1.9,1.9v4.51Z"/>
              <path class="cls-33" d="m78.97,95.86h-3.8v-4.51c0-1.05.85-1.9,1.9-1.9h0c1.05,0,1.9.85,1.9,1.9v4.51Z"/>
            </g>
          </g>
          <polygon class="cls-30" points="39.34 141.42 39.34 147.51 81.28 144.77 81.28 141.42 39.34 141.42"/>
          <polygon class="cls-4" points="39.34 165.54 81.28 165.54 81.28 144.77 39.34 147.51 39.34 165.54"/>
          <polygon class="cls-4" points="39.34 141.42 39.34 147.51 81.28 144.77 81.28 141.42 39.34 141.42"/>
          <rect class="cls-32" x="35.47" y="94.9" width="49.68" height="44.91"/>
          <polygon class="cls-32" points="35.47 139.81 39.21 143.84 81.29 143.84 85.15 139.81 35.47 139.81"/>
          <polygon class="cls-4" points="35.47 139.81 39.21 143.84 81.29 143.84 85.15 139.81 35.47 139.81"/>
          <polygon class="cls-32" points="36.68 81.63 39.34 85.7 81.29 85.66 83.83 81.52 36.68 81.63"/>
          <polygon class="cls-4" points="36.68 81.63 39.34 85.7 81.29 85.66 83.83 81.52 36.68 81.63"/>
          <line class="cls-4" x1="35.47" y1="98.3" x2="85.15" y2="98.3"/>
          <line class="cls-4" x1="35.47" y1="131.19" x2="85.15" y2="131.19"/>
          <g>
            <line class="cls-4" x1="44.03" y1="98.53" x2="44.03" y2="131.19"/>
            <line class="cls-4" x1="76.59" y1="98.53" x2="76.59" y2="131.19"/>
          </g>
          <g>
            <line class="cls-4" x1="35.74" y1="122.26" x2="43.74" y2="122.26"/>
            <line class="cls-4" x1="35.74" y1="107.46" x2="43.74" y2="107.46"/>
          </g>
          <g>
            <line class="cls-4" x1="76.91" y1="122.26" x2="84.91" y2="122.26"/>
            <line class="cls-4" x1="76.91" y1="107.46" x2="84.91" y2="107.46"/>
          </g>
          <path class="cls-33" d="m45.34,139.76h-3.8v-4.51c0-1.05.85-1.9,1.9-1.9h0c1.05,0,1.9.85,1.9,1.9v4.51Z"/>
          <path class="cls-33" d="m52.42,139.76h-3.8v-4.51c0-1.05.85-1.9,1.9-1.9h0c1.05,0,1.9.85,1.9,1.9v4.51Z"/>
          <path class="cls-33" d="m58.91,139.76h-3.8v-4.51c0-1.05.85-1.9,1.9-1.9h0c1.05,0,1.9.85,1.9,1.9v4.51Z"/>
          <path class="cls-33" d="m65.4,139.76h-3.8v-4.51c0-1.05.85-1.9,1.9-1.9h0c1.05,0,1.9.85,1.9,1.9v4.51Z"/>
          <path class="cls-33" d="m71.88,139.76h-3.8v-4.51c0-1.05.85-1.9,1.9-1.9h0c1.05,0,1.9.85,1.9,1.9v4.51Z"/>
          <path class="cls-33" d="m78.97,139.76h-3.8v-4.51c0-1.05.85-1.9,1.9-1.9h0c1.05,0,1.9.85,1.9,1.9v4.51Z"/>
          <circle class="cls-29" cx="60.31" cy="114.86" r="14.77"/>
          <circle class="cls-4" cx="60.31" cy="114.86" r="14.77"/>
          <g>
            <rect class="cls-30" x="42.16" y="148.06" width="1.59" height="15.38" rx=".79" ry=".79"/>
            <rect class="cls-30" x="46.02" y="148.06" width="1.59" height="15.38" rx=".79" ry=".79"/>
            <rect class="cls-30" x="49.88" y="148.06" width="1.59" height="15.38" rx=".79" ry=".79"/>
            <rect class="cls-30" x="53.73" y="148.06" width="1.59" height="15.38" rx=".79" ry=".79"/>
            <rect class="cls-30" x="57.59" y="148.06" width="1.59" height="15.38" rx=".79" ry=".79"/>
            <rect class="cls-30" x="61.44" y="148.06" width="1.59" height="15.38" rx=".79" ry=".79"/>
            <rect class="cls-30" x="65.3" y="148.06" width="1.59" height="15.38" rx=".79" ry=".79"/>
            <rect class="cls-30" x="69.16" y="148.06" width="1.59" height="15.38" rx=".79" ry=".79"/>
            <rect class="cls-30" x="73.01" y="148.06" width="1.59" height="15.38" rx=".79" ry=".79"/>
            <rect class="cls-30" x="76.87" y="148.06" width="1.59" height="15.38" rx=".79" ry=".79"/>
          </g>
          <path class="cls-33" d="m83.67,82.54h-1.59v-11.46c0-.44.36-.79.79-.79h0c.44,0,.79.36.79.79v11.46Z"/>
          <path class="cls-33" d="m38.19,82.54h-1.59v-11.46c0-.44.36-.79.79-.79h0c.44,0,.79.36.79.79v11.46Z"/>
          <path class="cls-33" d="m37.06,94.9h-1.59v-5.43c0-.44.36-.79.79-.79h0c.44,0,.79.36.79.79v5.43Z"/>
          <path class="cls-33" d="m85.15,94.9h-1.59v-5.43c0-.44.36-.79.79-.79h0c.44,0,.79.36.79.79v5.43Z"/>
          <path class="cls-29" d="m48.43,60.18h23.65l12.41,21.75c.25.35,0,.83-.42.83h-47.61c-.43,0-.68-.49-.42-.83l12.41-21.75Z"/>
          <path class="cls-4" d="m48.43,60.18h23.65l12.41,21.75c.25.35,0,.83-.42.83h-47.61c-.43,0-.68-.49-.42-.83l12.41-21.75Z"/>
          <rect class="cls-32" x="48.43" y="44.87" width="23.65" height="15.31"/>
          <rect class="cls-4" x="48.43" y="44.87" width="23.65" height="15.31"/>
          <g>
            <path class="cls-33" d="m55.67,60.18h-3.8v-10.49c0-1.05.85-1.9,1.9-1.9h0c1.05,0,1.9.85,1.9,1.9v10.49Z"/>
            <path class="cls-33" d="m62.15,60.18h-3.8v-10.49c0-1.05.85-1.9,1.9-1.9h0c1.05,0,1.9.85,1.9,1.9v10.49Z"/>
            <path class="cls-33" d="m68.64,60.18h-3.8v-10.49c0-1.05.85-1.9,1.9-1.9h0c1.05,0,1.9.85,1.9,1.9v10.49Z"/>
          </g>
          <line class="cls-4" x1="45.79" y1="114.86" x2="74.83" y2="114.86"/>
          <line class="cls-4" x1="60.31" y1="100.34" x2="60.31" y2="129.38"/>
          <line class="cls-4" x1="47.55" y1="107.94" x2="73.07" y2="121.78"/>
          <line class="cls-4" x1="67.23" y1="102.1" x2="53.39" y2="127.62"/>
          <g>
            <line class="cls-4" x1="52.67" y1="102.52" x2="67.95" y2="127.21"/>
            <line class="cls-4" x1="72.65" y1="107.22" x2="47.97" y2="122.5"/>
          </g>
          <circle class="cls-2" cx="60.31" cy="114.86" r="11.75"/>
          <line class="cls-4" x1="62.74" y1="117.09" x2="52.79" y2="107.96"/>
          <line class="cls-4" x1="60.31" y1="117.65" x2="60.31" y2="109.76"/>
          <path class="cls-30" d="m61.42,114.86c0,.61-.5,1.11-1.11,1.11s-1.11-.5-1.11-1.11.5-1.11,1.11-1.11,1.11.5,1.11,1.11Z"/>
          <rect class="cls-4" x="35.47" y="94.9" width="49.68" height="44.91"/>
          <rect class="cls-32" x="39.34" y="165.54" width="41.92" height="3.02"/>
          <rect class="cls-4" x="39.34" y="165.54" width="41.92" height="3.02"/>
          <path class="cls-33" d="m72.11,45.17h-1.59v-5.43c0-.44.36-.79.79-.79h0c.44,0,.79.36.79.79v5.43Z"/>
          <path class="cls-33" d="m49.95,45.17h-1.59v-5.43c0-.44.36-.79.79-.79h0c.44,0,.79.36.79.79v5.43Z"/>
          <polyline class="cls-29" points="71.79 44.45 65.63 34.03 60.19 10.89 60.14 10.89 54.7 34.03 48.53 44.45"/>
          <rect class="cls-30" x="47.73" y="44.45" width="24.96" height="2.38" rx="1.19" ry="1.19"/>
          <polyline class="cls-4" points="71.79 44.45 65.63 34.03 60.19 10.89 60.14 10.89 54.7 34.03 48.53 44.45"/>
          <rect class="cls-4" x="47.73" y="44.45" width="24.96" height="2.38" rx="1.19" ry="1.19"/>
          <path class="cls-33" d="m61.24,9.9c0,.6-.48,1.08-1.08,1.08s-1.08-.48-1.08-1.08.48-1.08,1.08-1.08,1.08.48,1.08,1.08Z"/>
          <line class="cls-4" x1="56.95" y1="34.03" x2="63.53" y2="34.03"/>
          <rect class="cls-32" x="32.37" y="214.3" width="55.87" height="3.02"/>
          <rect class="cls-4" x="32.37" y="214.3" width="55.87" height="3.02"/>
        </g>
        <g>
          <rect class="cls-32" x="302.82" y="66.65" width="40.5" height="151.14" rx="7.16" ry="7.16" transform="translate(-24.63 81.35) rotate(-13.83)"/>
          <path class="cls-13" d="m298.22,70.51l-5.91,1.46c-3.84.95-6.19,4.83-5.24,8.67l32.7,132.85c.95,3.84,4.83,6.19,8.67,5.24l25.41-6.26c.18-.04.36-.1.53-.16-29.61-41.53-47.2-91.71-56.16-141.8Z"/>
          <rect class="cls-16" x="302.82" y="66.65" width="40.5" height="151.14" rx="7.16" ry="7.16" transform="translate(-24.63 81.35) rotate(-13.83)"/>
          <g>
            <g>
              <rect class="cls-33" x="304.98" y="64.92" width="8.1" height="40.5" transform="translate(317.87 -235.26) rotate(76.17)"/>
              <rect class="cls-21" x="309.48" y="74.98" width="4.05" height="40.5" transform="translate(329.53 -230.01) rotate(76.17)"/>
            </g>
            <g>
              <rect class="cls-33" x="333.07" y="179.01" width="8.1" height="40.5" transform="translate(224.22 574.23) rotate(-103.83)"/>
              <rect class="cls-21" x="332.62" y="168.95" width="4.05" height="40.5" transform="translate(230.92 559.36) rotate(-103.83)"/>
            </g>
          </g>
        </g>
        <g>
          <path class="cls-29" d="m180.97,62.4h88.67c11.46,0,20.77,9.31,20.77,20.77v113.38c0,11.46-9.31,20.77-20.77,20.77h-88.67V62.4h0Z"/>
          <path class="cls-29" d="m163.07,217.11h17.69V62.19l-14.43,3.98c-1.92.53-3.25,2.28-3.25,4.27v146.67Z"/>
          <polygon class="cls-32" points="180.97 89.1 163.36 93.83 163.36 103.15 180.74 98.78 180.97 89.1"/>
          <polygon class="cls-31" points="180.97 75.59 163.36 80.32 163.36 89.64 180.74 85.27 180.97 75.59"/>
          <polygon class="cls-31" points="180.97 200.97 163.36 201.26 163.36 210.58 180.74 210.59 180.97 200.97"/>
          <polygon class="cls-31" points="180.97 187.46 163.36 187.75 163.36 197.07 180.74 197.08 180.97 187.46"/>
          <path class="cls-22" d="m163.28,217.32h17.69V62.4l-14.61,4.03c-1.82.5-3.07,2.15-3.07,4.04v146.85Z"/>
          <g class="cls-40">
            <line class="cls-7" x1="161.41" y1="65.76" x2="400.11" y2="253.74"/>
            <line class="cls-7" x1="406.66" y1="68.8" x2="163.32" y2="250.73"/>
            <line class="cls-23" x1="161.41" y1="65.76" x2="400.11" y2="253.74"/>
            <line class="cls-23" x1="406.66" y1="68.8" x2="163.32" y2="250.73"/>
            <path class="cls-6" d="m386.24,161.43c0,1.91-271.43,0-271.43,0"/>
            <path class="cls-6" d="m280.83,280.5c-1.91,0,0-271.43,0-271.43"/>
            <path class="cls-20" d="m386.24,161.43c0,1.91-271.43,0-271.43,0"/>
            <path class="cls-20" d="m280.83,280.5c-1.91,0,0-271.43,0-271.43"/>
          </g>
          <g class="cls-10">
            <path class="cls-31" d="m180.97,217.32h97.75c6.46,0,11.69-5.23,11.69-11.69v-74.17c-31.21,27.27-69.13,48.42-109.44,55.64v30.21Z"/>
          </g>
          <path class="cls-22" d="m180.97,62.4h88.67c11.46,0,20.77,9.31,20.77,20.77v113.38c0,11.46-9.31,20.77-20.77,20.77h-88.67V62.4h0Z"/>
          <path class="cls-22" d="m180.97,62.4h88.67c11.46,0,20.77,9.31,20.77,20.77v113.38c0,11.46-9.31,20.77-20.77,20.77h-88.67V62.4h0Z"/>
        </g>
        <g>
          <g>
            <path class="cls-3" d="m150.63,93.14c.94-.03,1.88-.06,2.84-.09l-.02,5.96c-.93.56-1.89,1.08-2.84,1.61l.02-7.48Z"/>
            <path class="cls-28" d="m153.45,99.01l-.15,45.51c0,.78-.64,1.42-1.42,1.41-.78,0-1.42-.64-1.41-1.42l.14-43.89c.96-.53,1.91-1.05,2.84-1.61Z"/>
            <path class="cls-28" d="m152.16,57.18c.78,0,1.42.64,1.41,1.42l-.11,34.45c-.95.03-1.9.05-2.84.09l.11-34.54c0-.78.64-1.42,1.42-1.41Z"/>
            <path class="cls-4" d="m151.88,145.94h0c-.78,0-1.42-.64-1.41-1.42l.28-85.92c0-.78.64-1.42,1.42-1.41h0c.78,0,1.42.64,1.41,1.42l-.28,85.92c0,.78-.64,1.42-1.42,1.41Z"/>
            <g>
              <path class="cls-35" d="m153.72,95.43c-18.96-12.26-37.92,12.6-56.88-.37.18-12.24.36-24.48.54-36.72,18.96,12.26,37.92-12.6,56.88.37-.18,12.24-.36,24.48-.54,36.72Z"/>
              <g class="cls-39">
                <g>
                  <path class="cls-1" d="m82.98,75.02c12,10.61,23.99,7.29,35.99,2.03-8.26-4.21-16.51-9.33-24.77-19.28.93-.62,1.85-1.29,2.78-2.02,8.26,8.91,16.51,13.44,24.77,17.49.16-11.29.32-22.58.49-33.86,2.07-.95,4.14-1.92,6.21-2.86-.16,11.29-.32,22.57-.49,33.86,8.48-11.69,16.96-22.85,25.45-29.25.9,1.01,1.8,2.07,2.71,3.19-8.48,5.33-16.96,15.88-25.45,27.41,12-5.25,23.99-8.53,35.99,2.14-.03,1.91-.06,3.82-.08,5.73-12-10.61-23.99-7.29-35.99-2.03,8.26,4.21,16.51,9.33,24.77,19.28-.93.62-1.85,1.29-2.78,2.02-8.26-8.91-16.51-13.44-24.77-17.49-.16,11.29-.32,22.58-.49,33.86-2.07.95-4.14,1.92-6.21,2.86.16-11.29.32-22.57.49-33.86-8.48,11.69-16.96,22.85-25.45,29.25-.9-1.01-1.8-2.07-2.71-3.19,8.48-5.33,16.96-15.88,25.45-27.41-12,5.25-23.99,8.53-35.99-2.14.03-1.91.06-3.82.08-5.73Z"/>
                  <path class="cls-32" d="m82.98,75.02c12,10.61,23.99,7.29,35.99,2.03-8.26-4.21-16.51-9.33-24.77-19.28.93-.62,1.85-1.29,2.78-2.02,8.26,8.91,16.51,13.44,24.77,17.49.16-11.29.32-22.58.49-33.86,2.07-.95,4.14-1.92,6.21-2.86-.16,11.29-.32,22.57-.49,33.86,8.48-11.69,16.96-22.85,25.45-29.25.9,1.01,1.8,2.07,2.71,3.19-8.48,5.33-16.96,15.88-25.45,27.41,12-5.25,23.99-8.53,35.99,2.14-.03,1.91-.06,3.82-.08,5.73-12-10.61-23.99-7.29-35.99-2.03,8.26,4.21,16.51,9.33,24.77,19.28-.93.62-1.85,1.29-2.78,2.02-8.26-8.91-16.51-13.44-24.77-17.49-.16,11.29-.32,22.58-.49,33.86-2.07.95-4.14,1.92-6.21,2.86.16-11.29.32-22.57.49-33.86-8.48,11.69-16.96,22.85-25.45,29.25-.9-1.01-1.8-2.07-2.71-3.19,8.48-5.33,16.96-15.88,25.45-27.41-12,5.25-23.99,8.53-35.99-2.14.03-1.91.06-3.82.08-5.73Z"/>
                </g>
              </g>
            </g>
            <path class="cls-22" d="m153.72,95.43c-18.96-12.26-37.92,12.6-56.88-.37.18-12.24.36-24.48.54-36.72,18.96,12.26,37.92-12.6,56.88.37-.18,12.24-.36,24.48-.54,36.72Z"/>
          </g>
          <path class="cls-28" d="m139.6,147.57h25.21c0-4.13-3.35-7.48-7.48-7.48h-10.24c-4.13,0-7.48,3.35-7.48,7.48h0Z"/>
          <path class="cls-4" d="m139.6,147.57h25.21c0-4.13-3.35-7.48-7.48-7.48h-10.24c-4.13,0-7.48,3.35-7.48,7.48h0Z"/>
        </g>
        <g>
          <path class="cls-31" d="m77.96,147.57h112.73c6.3,0,11.42,5.11,11.42,11.42v13.49c0,6.3-5.12,11.42-11.42,11.42h-112.73c-6.3,0-11.42-5.11-11.42-11.42v-13.49c0-6.3,5.12-11.42,11.42-11.42Z"/>
          <path class="cls-12" d="m66.54,172v5.46c0,3.55,2.88,6.43,6.42,6.43h122.71c3.55,0,6.42-2.88,6.42-6.43v-23.47c0-.17-.01-.33-.03-.5-42.52,16.88-89.99,21.45-135.53,18.51Z"/>
          <path class="cls-25" d="m77.96,147.57h112.73c6.3,0,11.42,5.11,11.42,11.42v13.49c0,6.3-5.12,11.42-11.42,11.42h-112.73c-6.3,0-11.42-5.11-11.42-11.42v-13.49c0-6.3,5.12-11.42,11.42-11.42Z"/>
          <g>
            <g>
              <rect class="cls-26" x="78" y="147.57" width="7.26" height="36.32"/>
              <rect class="cls-22" x="89.11" y="147.57" width="3.63" height="36.32"/>
            </g>
            <g>
              <rect class="cls-26" x="183.37" y="147.57" width="7.26" height="36.32" transform="translate(374.01 331.46) rotate(180)"/>
              <rect class="cls-29" x="175.9" y="147.57" width="3.63" height="36.32" transform="translate(355.43 331.46) rotate(180)"/>
              <rect class="cls-29" x="89.11" y="147.57" width="3.63" height="36.32"/>
              <rect class="cls-22" x="89.11" y="147.57" width="3.63" height="36.32"/>
              <rect class="cls-22" x="175.9" y="147.57" width="3.63" height="36.32" transform="translate(355.43 331.46) rotate(180)"/>
            </g>
          </g>
          <g>
            <rect class="cls-26" x="76.64" y="184.5" width="135.56" height="36.32"/>
            <path class="cls-32" d="m212.72,221.43H76.58c-1.78,0-3.22-1.44-3.22-3.22h0c0-1.78,1.44-3.22,3.22-3.22h136.14c1.78,0,3.22,1.44,3.22,3.22h0c0,1.78-1.44,3.22-3.22,3.22Z"/>
            <path class="cls-32" d="m212.72,190.25H76.58c-1.78,0-3.22-1.44-3.22-3.22h0c0-1.78,1.44-3.22,3.22-3.22h136.14c1.78,0,3.22,1.44,3.22,3.22h0c0,1.78-1.44,3.22-3.22,3.22Z"/>
            <path class="cls-25" d="m212.72,221.43H76.58c-1.78,0-3.22-1.44-3.22-3.22h0c0-1.78,1.44-3.22,3.22-3.22h136.14c1.78,0,3.22,1.44,3.22,3.22h0c0,1.78-1.44,3.22-3.22,3.22Z"/>
            <path class="cls-25" d="m212.72,190.25H76.58c-1.78,0-3.22-1.44-3.22-3.22h0c0-1.78,1.44-3.22,3.22-3.22h136.14c1.78,0,3.22,1.44,3.22,3.22h0c0,1.78-1.44,3.22-3.22,3.22Z"/>
            <g>
              <rect class="cls-31" x="81.23" y="197.21" width="21.89" height=".6"/>
              <path class="cls-31" d="m106.09,197.21c.02.2.04.4.06.6h101v-.6h-101.06Z"/>
            </g>
            <rect class="cls-31" x="80.34" y="193.62" width="125.92" height=".6"/>
            <g>
              <path class="cls-31" d="m161.98,201.84h-79.41v.6h79.44c-.01-.2-.01-.4-.02-.6Z"/>
              <path class="cls-31" d="m164.77,201.84c.01.2.02.4.03.6h43.69v-.6h-43.72Z"/>
            </g>
            <rect class="cls-31" x="79.65" y="207.23" width="125.92" height=".6"/>
            <g>
              <path class="cls-31" d="m136.04,211.04h-53.9v.6h53.99c-.04-.2-.07-.4-.1-.6Z"/>
              <path class="cls-31" d="m139.38,211.04c.02.2.03.4.05.6h68.64v-.6h-68.69Z"/>
            </g>
            <g>
              <polygon class="cls-31" points="174.91 197.59 175.7 218.54 179.94 214.3 185.09 219.45 184.9 197.59 174.91 197.59"/>
              <polygon class="cls-25" points="174.91 197.59 175.7 218.54 179.94 214.3 185.09 219.45 184.9 197.59 174.91 197.59"/>
            </g>
          </g>
        </g>
        <g>
          <g>
            <path class="cls-29" d="m102.96,136.38c-4.03,0-5.05,2.07-5.04,4.62v2.33c0,2.29.68,4.14,4.3,4.14h3.08s0-11.09,0-11.09h-2.33Z"/>
            <path class="cls-22" d="m102.96,136.38c-4.03,0-5.05,2.07-5.04,4.62v2.33c0,2.29.68,4.14,4.3,4.14h3.08s0-11.09,0-11.09h-2.33Z"/>
            <path class="cls-33" d="m171.88,147.42c.2,0,.36-.1.36-.23v-10.63c0-.13-.17-.23-.37-.23l-65.34.04v11.09s65.35-.04,65.35-.04Z"/>
            <path class="cls-22" d="m171.88,147.42c.2,0,.36-.1.36-.23v-10.63c0-.13-.17-.23-.37-.23l-65.34.04v11.09s65.35-.04,65.35-.04Z"/>
            <path class="cls-32" d="m105.73,139.39v-.26c11.83.06,23.6.01,34.98-.04,11.39-.05,23.16-.1,35-.04v.26c-11.84-.06-23.61-.01-35,.04-11.38.05-23.15.1-34.98.04Z"/>
            <path class="cls-32" d="m105.74,141.92v-.26c11.84.06,23.61.01,35-.04,11.38-.05,23.15-.1,34.98-.04v.26c-11.83-.06-23.6-.01-34.98.04-11.39.05-23.16.1-35,.04Z"/>
            <path class="cls-32" d="m105.74,144.32v-.26c11.84.11,23.61.1,35,.09,11.38,0,23.15-.02,34.98.09v.26c-11.84-.11-23.6-.1-34.98-.09-11.39,0-23.16.02-35-.09Z"/>
            <rect class="cls-24" x="105.29" y="136.38" width="1.24" height="11.09"/>
          </g>
          <path class="cls-24" d="m179.34,139.54l-7.28-3.21c-6.25,5.82.09,11.09.09,11.09l7.08-3.01c-.85-1.55-.91-3.22.11-4.87Z"/>
          <path class="cls-8" d="m182.33,140.86l-2.98-1.31c-1.02,1.64-.96,3.32-.11,4.87l3.25-1.38c1.19-.55,1.11-1.69-.16-2.17Z"/>
        </g>
        <g>
          <g>
            <path class="cls-9" d="m303.94,201.64c.38-1.97.74-3.89,1.1-5.75-1.19-.25-2.37-.49-3.56-.72-.4,2.15-.8,4.26-1.19,6.33,1.24-.01,2.45.05,3.66.14Z"/>
            <path class="cls-9" d="m303.2,205.52c-1.18-.17-2.37-.37-3.57-.58-.29,1.55-.58,3.07-.87,4.55,1.22-.08,2.46-.14,3.71-.18.25-1.28.49-2.55.73-3.79Z"/>
            <path class="cls-18" d="m298.77,209.5c-.28,1.47-.55,2.9-.82,4.27-.19.98.45,1.92,1.43,2.11.27.05.53.04.78-.02.66-.17,1.19-.7,1.33-1.41.34-1.76.67-3.46.99-5.14-1.25.04-2.49.1-3.71.18Z"/>
            <path class="cls-18" d="m303.94,201.64c-1.21-.09-2.42-.15-3.66-.14-.22,1.16-.44,2.31-.65,3.44,1.2.21,2.38.41,3.57.58.25-1.31.5-2.61.74-3.88Z"/>
            <path class="cls-18" d="m315.75,135.69c-.24-.96-1.22-1.55-2.19-1.31-.81.2-1.36.93-1.36,1.73-.03.3-.17,1.15-.4,2.48,1.23-.17,2.46-.26,3.69-.32.28-1.96.28-2.45.25-2.58Z"/>
            <path class="cls-9" d="m311.81,138.78c-1.38,8.12-6.07,33.87-10.33,56.58,1.19.24,2.38.48,3.56.72,7.45-39.14,9.78-52.82,10.46-57.62-1.23.06-2.46.16-3.69.32Z"/>
          </g>
          <g>
            <circle class="cls-31" cx="306.16" cy="170.99" r="29.57" transform="translate(-43.33 142.23) rotate(-24.48)"/>
            <g class="cls-37">
              <path class="cls-28" d="m333.79,156.7c-.06-1.35-1.4-2.37-2.74-2.51-1.34-.14-2.66.4-3.86,1.02-1.2.62-2.38,1.34-3.7,1.62-2.67.56-5.45-.78-8.16.04-.83.25-1.58.75-2.07,1.46-1.21,1.77-.17,3.55,1.21,4.57.99.73,2.16,1.16,3.24,1.75,2.24,1.22,4.06,3.15,5.22,5.42.73,1.43-.75,3.01-2.24,2.41-.71-.29-1.45-.5-2.21-.61-2.08-.3-4.45.39-5.52,2.21-.74,1.25-.74,2.79-.72,4.24.04,3.21.08,6.42.12,9.63.02,1.93.16,4.12,2.03,5.12,1.18.64,2.62.49,3.78-.18,2.08-1.2,2.99-3.47,3.7-5.66.64-2.01,1.2-4.11,2.8-5.6.63-.58,1.4-1,2.24-1.14,2.53-.42,3.64,1.68,5.3,2.88,2.79,2.01,6.9,1.14,9.5-1.11,2.6-2.25,4.01-5.56,5.18-8.79"/>
              <path class="cls-28" d="m282.6,144c-1.87,2.39-3.78,4.85-4.72,7.75-.94,2.89-.73,6.35,1.31,8.61,1.51,1.67,3.75,2.44,5.63,3.67,1.88,1.23,3.56,3.42,2.89,5.57-.49,1.58-2.06,2.52-3.25,3.67-4,3.88-3.8,10.23-3.31,15.78.16,1.86.33,3.76,1.08,5.46.75,1.71,2.19,3.23,4.02,3.57,1.73.32,3.52-.46,4.82-1.65,1.3-1.18,2.21-2.73,3.09-4.25,1.83-3.15,3.66-6.3,5.5-9.45,1.62-2.78,3.24-6.3,1.51-9.01-1.34-2.11-4.22-2.77-5.73-4.77-1.12-1.48-1.28-3.62-.39-5.26.88-1.63,2.77-2.67,4.62-2.54,1.13.08,2.2.55,3.33.6,1.13.05,2.44-.53,2.62-1.65.31-2.01-3.08-2.92-3.14-4.95-.03-.97.76-1.78,1.64-2.19.88-.41,1.85-.53,2.77-.84,3.63-1.24,5.63-5.34,5.63-9.18,0-3.83-1.57-7.47-3.11-10.97"/>
              <g class="cls-11">
                <path class="cls-14" d="m290.46,187.11c-5.5-1.83-10.1-5.12-13.52-9.29,2.23,9.73,9.34,18.1,19.5,21.48,15.5,5.15,32.24-3.23,37.39-18.73,3.32-10,1.01-20.51-5.21-28.1,1.17,5.1,1,10.58-.77,15.91-5.15,15.5-21.89,23.88-37.39,18.73Z"/>
              </g>
              <path class="cls-33" d="m290.94,204.83c-4.93-37.88,26.6-65.07,26.92-65.34l.5.59c-.32.27-31.54,27.2-26.66,64.66l-.76.1Z"/>
              <path class="cls-33" d="m284.96,194.87c-12.74-38.93,23.5-56.29,23.87-56.46l.3.64c-.09.04-9.15,4.32-16.53,13.28-6.79,8.25-13.52,22.29-6.96,42.31l-.68.22Z"/>
              <path class="cls-33" d="m291.16,204.93l-.41-.65c31.82-20.38,32.32-61.61,32.32-62.02h.77c0,.42-.51,42.06-32.68,62.67Z"/>
              <path class="cls-33" d="m302.63,203.1l-.27-.66c19.54-7.87,25.96-22.05,27.9-32.57,2.11-11.42-.45-21.1-.48-21.2l.69-.19c.11.39,10.15,39.3-27.84,54.61Z"/>
              <path class="cls-33" d="m301.16,174.33c-5.44-2.53-9.91-5.13-13.48-7.5-11.46-7.59-16.41-14.53-16.46-14.59l.63-.44c.19.27,19.84,27.35,72.73,33.56l-.09.76c-18.4-2.16-32.7-6.84-43.32-11.79Z"/>
              <path class="cls-33" d="m310,161.46c-11.18-5.21-21.87-11.44-31.85-18.6l.45-.62c23.34,16.75,50.61,28.4,78.85,33.68l-.14.75c-16.28-3.04-32.23-8.19-47.3-15.21Z"/>
              <path class="cls-33" d="m294.14,140.97l.15-.75c14.4,2.86,28.45,8.71,40.62,16.92l-.43.64c-12.09-8.16-26.04-13.97-40.34-16.81Z"/>
              <path class="cls-33" d="m295.57,195.23c-6.99-3.25-13.64-7.22-19.76-11.8l.46-.61c11.68,8.74,25.32,15.23,39.47,18.76l-.19.74c-6.83-1.71-13.55-4.1-19.98-7.1Z"/>
              <path class="cls-33" d="m296.02,186.14c-9.25-4.31-17.73-10.23-24.8-17.5l.55-.53c15.88,16.34,38.95,25.8,61.73,25.3l.02.77c-12.84.28-25.78-2.58-37.5-8.03Z"/>
            </g>
            <circle class="cls-19" cx="306.16" cy="170.99" r="29.57" transform="translate(-43.33 142.23) rotate(-24.48)"/>
          </g>
          <path class="cls-18" d="m286.23,220.91c0-4.46,6.43-8.07,14.37-8.07s14.37,3.61,14.37,8.07"/>
          <path class="cls-33" d="m315.13,223.15h-29.06c-.97,0-1.76-.79-1.76-1.76h0c0-.97.79-1.76,1.76-1.76h29.06c.97,0,1.76.79,1.76,1.76h0c0,.97-.79,1.76-1.76,1.76Z"/>
          <path class="cls-22" d="m315.13,223.15h-29.06c-.97,0-1.76-.79-1.76-1.76h0c0-.97.79-1.76,1.76-1.76h29.06c.97,0,1.76.79,1.76,1.76h0c0,.97-.79,1.76-1.76,1.76Z"/>
          <path class="cls-29" d="m309.79,208.12c-8.97.7-17.83-1.94-24.96-7.41-1.03-.79-1.23-2.27-.43-3.31.79-1.04,2.27-1.23,3.31-.43,6.2,4.76,13.92,7.06,21.72,6.45,17.4-1.35,30.46-16.6,29.11-34-1.16-14.93-12.76-27.11-27.59-28.96-1.29-.16-2.21-1.34-2.05-2.63.16-1.29,1.33-2.2,2.63-2.05,17.04,2.13,30.38,16.13,31.71,33.28,1.55,19.99-13.45,37.52-33.44,39.07Z"/>
          <path class="cls-22" d="m309.79,208.12c-8.97.7-17.83-1.94-24.96-7.41-1.03-.79-1.23-2.27-.43-3.31.79-1.04,2.27-1.23,3.31-.43,6.2,4.76,13.92,7.06,21.72,6.45,17.4-1.35,30.46-16.6,29.11-34-1.16-14.93-12.76-27.11-27.59-28.96-1.29-.16-2.21-1.34-2.05-2.63.16-1.29,1.33-2.2,2.63-2.05,17.04,2.13,30.38,16.13,31.71,33.28,1.55,19.99-13.45,37.52-33.44,39.07Z"/>
        </g>
      </g>
    </g>
  </g>
</svg>