<?xml version="1.0" encoding="utf-8"?>
<!-- Generator: Adobe Illustrator 27.9.0, SVG Export Plug-In . SVG Version: 6.00 Build 0)  -->
<svg version="1.1" id="Layer_1" xmlns="http://www.w3.org/2000/svg" xmlns:xlink="http://www.w3.org/1999/xlink" x="0px" y="0px"
	 viewBox="0 0 300 300" style="enable-background:new 0 0 300 300;" xml:space="preserve">
<style type="text/css">
	.st0{fill:#FF0000;}
	.st1{fill:#FFFFFF;}
</style>
<path class="st0" d="M59.7,0h180.6c33,0,59.7,26.7,59.7,59.7v180.6c0,33-26.7,59.7-59.7,59.7H59.7C26.7,300,0,273.3,0,240.3V59.7
	C0,26.7,26.7,0,59.7,0z"/>
<path class="st1" d="M149.9,79.2c0,0-63.2,0-79.1,4.1c-8.5,2.4-15.5,9.4-17.9,18c-4.1,15.9-4.1,48.7-4.1,48.7s0,33,4.1,48.6
	c2.4,8.6,9.2,15.5,17.9,17.9c16,4.2,79.1,4.2,79.1,4.2s63.3,0,79.2-4.1c8.6-2.4,15.5-9.1,17.7-17.9c4.2-15.7,4.2-48.6,4.2-48.6
	s0.1-33-4.2-48.9c-2.2-8.6-9.1-15.5-17.7-17.7C213.3,79.2,149.9,79.2,149.9,79.2L149.9,79.2z M129.8,119.7l52.6,30.4l-52.6,30.2
	V119.7z"/>
</svg>
